<?xml version="1.0" standalone="no"?>
<!DOCTYPE svg PUBLIC "-//W3C//DTD SVG 1.1//EN" "http://www.w3.org/Graphics/SVG/1.1/DTD/svg11.dtd" >
<svg xmlns="http://www.w3.org/2000/svg">
<metadata></metadata>
<defs>
<font id="monofurRegular" horiz-adv-x="1024" >
<font-face units-per-em="2048" ascent="1638" descent="-410" />
<missing-glyph horiz-adv-x="500" />
<glyph horiz-adv-x="0" />
<glyph horiz-adv-x="2048" />
<glyph unicode=" " />
<glyph unicode="!" d="M415 97q0 40 28.5 67.5t68.5 27.5t68.5 -27.5t28.5 -67.5t-28.5 -68.5t-68.5 -28.5t-68.5 28.5t-28.5 68.5zM448 384v832q0 64 64 64t64 -64v-832q0 -64 -64 -64t-64 64z" />
<glyph unicode="&#x22;" d="M224 893q0 13 5 27l128 320q16 41 57 41q26 0 46 -18t20 -44q0 -13 -5 -27l-128 -320q-16 -41 -57 -41q-26 0 -46 18.5t-20 43.5zM544 893q0 13 5 27l128 320q16 41 57 41q26 0 46 -18t20 -44q0 -13 -5 -27l-128 -320q-16 -41 -57 -41q-26 0 -46 18.5t-20 43.5z" />
<glyph unicode="#" d="M64 320q0 64 64 64h107v512h-107q-64 0 -64 64t64 64h107v192q0 64 64 64t64 -64v-192h298v192q0 64 64 64t64 -64v-192h107q64 0 64 -64t-64 -64h-107v-512h107q64 0 64 -64t-64 -64h-107v-192q0 -64 -64 -64t-64 64v192h-298v-192q0 -64 -64 -64t-64 64v192h-107 q-64 0 -64 64zM363 384h298v512h-298v-512z" />
<glyph unicode="$" d="M63 225q0 26 20 45t47 19q24 0 48 -24q20 -21 39 -43q78 -73 204 -90v512q-133 20 -226 99q-103 89 -104 217q0 128 104 217q93 79 226 99v196q0 64 64 64t64 -64v-196q192 -26 271 -149q15 -21 15 -39q0 -26 -20.5 -45t-46.5 -19q-23 0 -50 26q-82 81 -169 97v-382 q165 -20 280 -116q131 -108 131 -265t-131 -265q-116 -96 -280 -116v-195q0 -64 -64 -64t-64 64v195q-101 12 -192 57q-104 51 -152 126q-14 22 -14 39zM219 960q0 -74 66 -126q56 -44 136 -59v370q-80 -15 -136 -59q-66 -52 -66 -126zM549 133q112 17 190 77q93 71 93 174 t-93 174q-79 60 -190 77v-502z" />
<glyph unicode="%" d="M63 63q0 19 12 37l768 1152q20 29 51 29q26 0 46.5 -19t20.5 -45q0 -19 -12 -37l-768 -1152q-20 -29 -51 -29q-26 0 -46.5 19.5t-20.5 44.5zM64 960q0 118 57 211q67 109 178 109q110 0 177 -109q57 -93 57 -211t-57 -211q-67 -109 -177 -109t-178 109q-57 93 -57 211z M192 960q0 -121 65 -174q22 -18 42 -18q16 0 35 13q71 50 71 179t-71 179q-19 13 -35 13q-20 0 -42 -18q-65 -53 -65 -174zM491 320q0 118 57 211q67 109 177 109t178 -109q57 -93 57 -211t-57 -211q-67 -109 -178 -109q-110 0 -177 109q-57 93 -57 211zM619 320 q0 -129 71 -179q19 -13 35 -13q20 0 42 18q65 53 65 174t-65 174q-22 18 -42 18q-16 0 -35 -13q-72 -50 -71 -179z" />
<glyph unicode="&#x26;" d="M64 384q0 212 166 326q-108 119 -108 250q0 128 82 222q86 98 212 98q125 0 212 -98q82 -94 82 -222q0 -114 -67 -205q-71 -94 -182 -112l483 -536q17 -20 17 -43q0 -26 -20 -45.5t-46 -19.5t-47 22l-137 153q-104 -174 -295 -174q-152 0 -254 118q-98 113 -98 266z M192 384q0 -100 61 -175q65 -81 163 -81q143 0 204 148l-303 337q-125 -71 -125 -229zM250 960q0 -61 30 -110q15 -21 74 -88q31 6 62 6q73 0 122 61q44 57 44 131t-44 131q-49 61 -122 61t-122 -61q-44 -57 -44 -131z" />
<glyph unicode="'" d="M383 893q0 13 5 27l128 320q16 41 58 41q26 0 46.5 -18t20.5 -44q0 -13 -5 -27l-128 -320q-16 -41 -58 -41q-26 0 -46.5 18.5t-20.5 43.5z" />
<glyph unicode="(" d="M346 448q0 355 152 683q37 79 44 91q35 58 71 58q26 0 46 -18.5t20 -44.5q0 -15 -9 -33q-102 -202 -146 -355q-50 -177 -50 -381q0 -203 50 -381q44 -153 146 -354q9 -19 9 -34q0 -26 -20.5 -44.5t-45.5 -18.5q-36 0 -71 59q-7 12 -44 90q-153 328 -152 683z" />
<glyph unicode=")" d="M345 -321q0 15 9 34q102 201 146 354q50 177 50 381q0 203 -50 381q-44 153 -146 355q-9 19 -9 33q0 26 20.5 44.5t45.5 18.5q36 0 71 -58q7 -13 44 -91q152 -328 152 -683t-151 -683q-38 -79 -45 -90q-35 -59 -71 -59q-26 0 -46 19t-20 44z" />
<glyph unicode="*" d="M64 832q0 64 58 64q4 0 274 -16l-201 178q-20 18 -20 45q0 26 20 46t46 20q27 0 45 -20l178 -201q-16 270 -16 274q0 58 64 58t64 -58q0 -4 -16 -274l178 201q18 20 45 20q26 0 46 -20t20 -46q0 -27 -20 -45l-201 -178q270 16 274 16q58 0 58 -64t-58 -64q-4 0 -274 16 l201 -178q20 -18 20 -45q0 -26 -20 -46t-46 -20q-27 0 -45 20l-178 201q16 -270 16 -274q0 -58 -64 -58t-64 58q0 4 16 274l-178 -201q-18 -20 -45 -20q-26 0 -46 20t-20 46q0 27 20 45l201 178q-270 -16 -274 -16q-58 0 -58 64z" />
<glyph unicode="+" d="M64 544q0 64 64 64h320v320q0 63 64 64q64 0 64 -64v-320h320q64 0 64 -64t-64 -64h-320v-320q0 -64 -64 -64t-64 64v320h-320q-64 0 -64 64z" />
<glyph unicode="," d="M390 -207q0 21 20 44q94 108 94 227q0 64 64 64t64 -64q0 -197 -131 -317q-22 -20 -45 -20q-26 0 -46 19.5t-20 46.5z" />
<glyph unicode="-" d="M256 448q0 64 64 64h384q64 0 64 -64t-64 -64h-384q-64 0 -64 64z" />
<glyph unicode="." d="M415 97q0 40 28.5 67.5t68.5 27.5t68.5 -27.5t28.5 -67.5t-28.5 -68.5t-68.5 -28.5t-68.5 28.5t-28.5 68.5z" />
<glyph unicode="/" d="M63 -323q0 15 8 31l768 1537q18 36 55 36q26 0 46.5 -18.5t20.5 -44.5q0 -15 -8 -31l-768 -1537q-18 -36 -55 -36q-26 0 -46.5 18.5t-20.5 44.5z" />
<glyph unicode="0" d="M64 544q0 207 118 367q130 177 330 177q201 0 330 -177q118 -160 118 -367q0 -208 -118 -367q-130 -177 -330 -177q-201 0 -330 177q-118 160 -118 367zM192 544q0 -154 82 -276q92 -140 238 -140t238 140q82 122 82 276q0 153 -82 276q-92 140 -238 140t-238 -140 q-82 -123 -82 -276zM447 544q0 63 65 63t65 -63q0 -26 -19.5 -45.5t-45.5 -19.5t-45.5 19t-19.5 46z" />
<glyph unicode="1" d="M170 705q0 25 19 44l312 312q28 28 53 28q65 0 65 -77v-884h170q64 0 64 -64t-64 -64h-469q-64 0 -64 64t64 64h171v742l-211 -211q-20 -20 -44 -20q-26 0 -46 19.5t-20 46.5z" />
<glyph unicode="2" d="M119 56q0 27 35 59q27 24 77 52q42 22 84 45q453 269 453 492q0 106 -75 181t-181 75t-181 -75t-75 -181q0 -64 -64 -64t-64 64q0 159 112.5 271.5t271.5 112.5t271.5 -112.5t112.5 -271.5q0 -133 -89 -246q-66 -84 -203 -179q-111 -75 -222 -151h450q64 0 64 -64 t-64 -64h-640q-73 0 -73 56z" />
<glyph unicode="3" d="M119 49q0 26 20.5 45t46.5 19q29 0 53 -33q108 -144 250 -144q119 0 203.5 84.5t84.5 203.5t-84.5 203.5t-203.5 84.5q-81 0 -160.5 -52.5t-91.5 -52.5q-26 0 -45 19t-19 45q0 28 24 50l479 439h-493q-64 0 -64 64t64 64h658q72 0 72 -55q0 -30 -29 -56l-369 -338 q164 -10 277 -130.5t113 -284.5q0 -172 -122.5 -294t-293.5 -122q-109 0 -208 56q-103 57 -153 151q-9 19 -9 34z" />
<glyph unicode="4" d="M59 246q0 22 16 46l512 768q26 38 60 38q57 0 57 -74v-704h192q64 0 64 -64t-64 -64h-192v-320q0 -64 -64 -64t-64 64v320h-448q-69 0 -69 54zM247 320h329v492z" />
<glyph unicode="5" d="M89 66q0 26 20.5 44.5t45.5 18.5q30 0 54 -33q12 -19 38 -53q95 -107 239 -107q132 0 226 94t94 226t-93.5 226t-226.5 94q-162 0 -277 -160q-30 -41 -61 -41q-58 0 -58 67v16l90 576q3 20 23 37t40 17h627q64 0 64 -64t-64 -64h-572l-51 -325q109 69 239 69 q185 0 316.5 -131.5t131.5 -316.5t-131 -316.5t-317 -131.5q-117 0 -224 61q-110 62 -164 163q-9 19 -9 34z" />
<glyph unicode="6" d="M64 448q0 344 244 588t588 244q64 0 64 -64t-64 -64q-172 0 -324.5 -79.5t-251.5 -220.5q90 44 192 44q185 0 316.5 -131.5t131.5 -316.5t-131.5 -316.5t-316.5 -131.5t-316.5 131.5t-131.5 316.5zM192 448q0 -132 94 -226t226 -94t226 94t94 226t-94 226t-226 94 t-226 -94t-94 -226z" />
<glyph unicode="7" d="M64 1024q0 64 64 64h768q67 0 67 -55q0 -19 -11 -39l-618 -1152q-19 -35 -55 -35q-26 0 -46.5 19t-20.5 44q0 16 9 32l568 1058h-661q-64 0 -64 64z" />
<glyph unicode="8" d="M128 384q0 214 183 327q-119 96 -119 249q0 132 94 226t226 94t226 -94t94 -226q0 -153 -119 -249q183 -113 183 -327q0 -159 -112.5 -271.5t-271.5 -112.5t-271.5 112.5t-112.5 271.5zM256 384q0 -106 75 -181t181 -75t181 75t75 181t-75 181t-181 75t-181 -75t-75 -181 zM320 960q0 -79 56.5 -135.5t135.5 -56.5t135.5 56.5t56.5 135.5t-56.5 135.5t-135.5 56.5t-135.5 -56.5t-56.5 -135.5z" />
<glyph unicode="9" d="M64 -128q0 64 64 64q172 0 324.5 79.5t251.5 220.5q-90 -44 -192 -44q-185 0 -316.5 131.5t-131.5 316.5t131.5 316.5t316.5 131.5t316.5 -131.5t131.5 -316.5q0 -344 -244 -588t-588 -244q-64 0 -64 64zM192 640q0 -132 94 -226t226 -94t226 94t94 226t-94 226t-226 94 t-226 -94t-94 -226z" />
<glyph unicode=":" d="M415 97q0 40 28.5 67.5t68.5 27.5t68.5 -27.5t28.5 -67.5t-28.5 -68.5t-68.5 -28.5t-68.5 28.5t-28.5 68.5zM415 801q0 40 28.5 67.5t68.5 27.5t68.5 -27.5t28.5 -67.5t-28.5 -68.5t-68.5 -28.5t-68.5 28.5t-28.5 68.5z" />
<glyph unicode=";" d="M375 -207q0 21 19 44q94 108 94 227q0 64 64 64t64 -64q0 -197 -131 -317q-22 -20 -45 -20q-26 0 -45.5 19.5t-19.5 46.5zM455 801q0 40 28.5 67.5t68.5 27.5q41 0 69 -27.5t28 -67.5t-28.5 -68.5t-68.5 -28.5q-39 0 -68 28.5t-29 68.5z" />
<glyph unicode="&#x3c;" d="M63 544q0 38 47 63l757 379q15 8 31 7q26 0 44.5 -20.5t18.5 -46.5q0 -37 -36 -56l-654 -326l654 -326q36 -19 36 -56q0 -26 -18.5 -46.5t-44.5 -20.5q-15 0 -31 7l-757 379q-47 24 -47 63z" />
<glyph unicode="=" d="M64 352q0 64 64 64h768q64 0 64 -64t-64 -64h-768q-64 0 -64 64zM64 736q0 64 64 64h768q64 0 64 -64t-64 -64h-768q-64 0 -64 64z" />
<glyph unicode="&#x3e;" d="M63 162q0 37 36 56l654 326l-654 326q-36 19 -36 56q0 26 18.5 46.5t44.5 20.5q15 0 31 -7l757 -379q47 -25 47 -63q0 -39 -47 -63l-757 -379q-15 -8 -31 -7q-26 0 -44.5 20.5t-18.5 46.5z" />
<glyph unicode="?" d="M64 960q0 151 154 242q131 78 294 78q162 0 294 -78q154 -91 154 -242t-154 -242q-131 -78 -294 -78q-116 0 -164 -65q-12 -16 -12 -31q0 -20 24 -45q50 -51 152 -51q28 0 69.5 11t53.5 11q26 0 44 -20t18 -46q0 -84 -185 -84q-112 0 -201 55q-103 64 -103 169 q0 106 103 169q89 55 201 55q211 0 294 120q26 37 26 72t-26 72q-84 120 -294 120q-211 0 -294 -120q-26 -37 -26 -72q0 -64 -64 -64t-64 64zM415 97q0 40 28.5 67.5t68.5 27.5t68.5 -27.5t28.5 -67.5t-28.5 -68.5t-68.5 -28.5t-68.5 28.5t-28.5 68.5z" />
<glyph unicode="@" d="M64 640q0 240 130 428q146 212 375 212q177 0 290 -161q101 -145 101 -330t-101 -329q-113 -161 -290 -161q-125 0 -205 111q-72 101 -71 230q0 130 71 230q80 111 205 111q96 0 168 -70q67 -63 93 -161q2 20 2 39q0 130 -66 238q-76 125 -197 125q-120 0 -218 -96 q-86 -84 -127 -209q-32 -97 -32 -207q0 -109 32 -207q41 -125 127 -209q98 -96 218 -96q118 0 217 94q15 16 45 50q24 26 49 27q26 0 46 -20t20 -45q0 -20 -13 -39q-63 -88 -160 -140q-99 -55 -204 -55q-230 0 -375 212q-130 189 -130 428zM421 640q0 -74 36 -138 q43 -75 112 -75t112 75q37 64 37 138t-37 138q-43 75 -112 75t-112 -75q-37 -64 -36 -138z" />
<glyph unicode="A" d="M63 61q0 11 4 23l381 1142q18 54 64 54t64 -54l381 -1142q4 -12 4 -23q0 -61 -67 -61q-44 0 -59 44l-113 340h-420l-113 -340q-15 -44 -59 -44q-67 0 -67 61zM345 512h334l-167 502z" />
<glyph unicode="B" d="M149 64v1152q0 26 19.5 45t44.5 19h363q132 0 226 -94t94 -226q0 -153 -119 -249q183 -113 183 -328q0 -159 -112.5 -271.5t-272.5 -112.5l-362 1q-26 0 -45 19t-19 45zM277 128l299 -1q106 0 181 75t75 181t-75 181.5t-181 75.5h-299v-512zM277 768h299q79 0 135.5 56.5 t56.5 135.5t-56.5 135.5t-135.5 56.5h-299v-384z" />
<glyph unicode="C" d="M64 640q0 241 133 430q149 210 381 210q105 0 207 -54t161 -139q15 -21 15 -40q0 -26 -20 -45.5t-47 -19.5q-16 0 -38.5 16t-26.5 30q-1 2 -18 20q-104 104 -233 104q-119 0 -218 -91q-88 -80 -131 -203q-37 -102 -37 -218t37 -218q44 -122 130 -203q99 -91 219 -91 q128 0 233 104q8 6 18 19q1 13 26 30t39 17q26 0 46.5 -19.5t20.5 -45.5q0 -19 -15 -40q-60 -85 -161.5 -139t-206.5 -54q-231 0 -381 210q-133 189 -133 430z" />
<glyph unicode="D" d="M149 64v1152q0 26 19.5 45t44.5 19h107q265 0 452.5 -187.5t187.5 -452.5t-187.5 -452.5t-452.5 -187.5h-107q-26 0 -45 19t-19 45zM277 128h43q212 0 362 150t150 362t-150 362t-362 150h-43v-1024z" />
<glyph unicode="E" d="M149 64v1152q0 26 19.5 45t44.5 19h683q64 0 64 -64t-64 -64h-619v-448h619q64 0 64 -64t-64 -64h-619v-448h619q64 0 64 -64t-64 -64h-683q-26 0 -45 19t-19 45z" />
<glyph unicode="F" d="M149 64v1153q0 63 63 63h684q64 0 64 -64t-64 -64h-619v-448h619q64 0 64 -64t-64 -64h-619v-512q0 -64 -64 -64t-64 64z" />
<glyph unicode="G" d="M64 640q0 237 124 425q141 215 365 215q102 0 199 -55q95 -54 153 -140q13 -19 13 -38q0 -26 -20 -45.5t-46 -19.5t-50 27q-11 14 -36 43q-97 100 -213 100t-211 -98q-81 -84 -119 -207q-31 -97 -31 -207t31 -207q38 -123 119 -207q95 -98 211 -98q134 0 236 126v386 q0 64 64 64t64 -64v-408q0 -88 -141 -165q-125 -67 -223 -67q-224 0 -365 215q-124 188 -124 425z" />
<glyph unicode="H" d="M149 64v1152q0 64 64 64t64 -64v-512h470v512q0 64 64 64t64 -64v-1152q0 -64 -64 -64t-64 64v512h-470v-512q0 -64 -64 -64t-64 64z" />
<glyph unicode="I" d="M192 64q0 64 64 64h192v1024h-192q-64 0 -64 64t64 64h512q64 0 64 -64t-64 -64h-192v-1024h192q64 0 64 -64t-64 -64h-512q-64 0 -64 64z" />
<glyph unicode="J" d="M63 -177q0 26 20 45t47 19q23 0 47 -24q121 -119 250 -119q132 0 226 94t94 226v1088h-619q-64 0 -64 64t64 64h684q63 0 63 -63v-1153q0 -185 -131.5 -316.5t-316.5 -131.5q-97 0 -194 44q-102 46 -154 122q-15 22 -16 41z" />
<glyph unicode="K" d="M149 64v1152q0 64 64 64t64 -64v-564q3 18 18 32l555 576q20 20 45 21q26 0 46 -19.5t20 -45.5q0 -25 -19 -44l-512 -532l512 -532q19 -19 19 -44q0 -26 -19.5 -45.5t-46.5 -19.5q-26 0 -45 21l-555 576q-17 18 -18 32v-564q0 -64 -64 -64t-64 64zM277 628q0 -5 7 -17 q-5 9 -7 18v-1zM282 615q4 -8 10 -16q-4 6 -10 16z" />
<glyph unicode="L" d="M149 63v1153q0 64 64 64t64 -64v-1088h619q64 0 64 -64t-64 -64h-683q-64 0 -64 63z" />
<glyph unicode="M" d="M64 62q0 5 1 11l153 1144q8 63 64 63q49 0 64 -55l166 -648l166 648q15 55 63 55q58 0 65 -63l153 -1144q1 -6 1 -11q0 -62 -65 -62q-55 0 -62 55l-110 826l-147 -568q-15 -57 -64 -57t-64 57l-147 568l-110 -826q-7 -55 -62 -55q-65 0 -65 62z" />
<glyph unicode="N" d="M148 1217q0 64 67 64q37 0 59 -44l473 -910v889q0 64 64 64t64 -64l1 -1153q0 -64 -67 -64q-37 0 -59 44l-473 910v-889q0 -64 -64 -64t-64 64z" />
<glyph unicode="O" d="M64 640q0 230 108 417q128 223 340 223t340 -223q108 -187 108 -417t-108 -417q-128 -223 -340 -223t-340 223q-108 188 -108 417zM192 640q0 -112 28 -210q33 -116 103 -200q85 -102 189 -102t189 102q69 84 103 200q28 98 28 210t-28 210q-33 116 -103 200 q-85 102 -189 102t-189 -102q-69 -84 -103 -200q-28 -98 -28 -210z" />
<glyph unicode="P" d="M149 64v1152q0 26 19.5 45t44.5 19h363q159 0 271.5 -112.5t112.5 -271.5t-112.5 -271.5t-271.5 -112.5h-299v-448q0 -64 -64 -64t-64 64zM277 640h299q106 0 181 75t75 181t-75 181t-181 75h-299v-512z" />
<glyph unicode="Q" d="M64 640q0 230 108 417q128 223 340 223t340 -223q108 -188 108 -417q0 -199 -82 -369q-96 -201 -264 -256q36 -106 103 -181q82 -90 179 -90q64 0 64 -64t-64 -64q-150 0 -265 122q-97 103 -146 263q-201 16 -320 234q-101 184 -101 405zM192 640q0 -159 60 -296 q73 -167 204 -207q-8 60 -8 119q0 64 64 64t64 -64q0 -58 8 -113q124 49 192 209q56 134 56 288q0 112 -28 210q-33 116 -103 200q-85 102 -189 102t-189 -102q-69 -84 -103 -199q-28 -99 -28 -211z" />
<glyph unicode="R" d="M149 64v1153q0 63 63 63h364q159 0 271.5 -112.5t112.5 -271.5t-112.5 -271.5t-271.5 -112.5h-38l403 -403q20 -19 20 -44q0 -26 -19.5 -46t-46.5 -20q-25 0 -44 20l-504 503q-28 28 -28 53q0 65 77 65h180q106 0 181 75t75 181t-75 181t-181 75h-299v-1088 q0 -64 -64 -64t-64 64z" />
<glyph unicode="S" d="M63 225q0 26 20 45t47 19q25 0 49 -26q12 -15 38 -41q104 -94 268 -94q125 0 228 64q119 74 119 192t-119 192q-103 64 -228 64q-149 0 -266 84q-128 92 -128 236t128 236q116 84 266 84q96 0 186 -38q99 -42 149 -115q15 -20 15 -39q0 -26 -20.5 -45t-46.5 -19 q-24 0 -50 26q-100 102 -233 102q-95 0 -174 -48q-92 -55 -92 -144t92 -144q79 -48 174 -48q180 0 320 -100q155 -111 155 -284t-155 -284q-140 -100 -320 -100q-117 0 -227 46q-120 51 -181 140q-14 20 -14 39z" />
<glyph unicode="T" d="M64 1216q0 64 64 64h768q64 0 64 -64t-64 -64h-320v-1088q0 -64 -64 -64t-64 64v1088h-320q-64 0 -64 64z" />
<glyph unicode="U" d="M107 405v811q0 64 64 64t64 -64v-811q0 -114 81.5 -195.5t195.5 -81.5t195.5 81.5t81.5 195.5v811q0 64 64 64t64 -64v-811q0 -168 -118.5 -286.5t-286.5 -118.5t-286.5 118.5t-118.5 286.5z" />
<glyph unicode="V" d="M63 1219q0 61 67 61q44 0 59 -44l323 -970l323 970q15 44 59 44q67 0 67 -61q0 -11 -4 -23l-381 -1142q-18 -54 -64 -54t-64 54l-381 1142q-4 12 -4 23z" />
<glyph unicode="W" d="M64 1219q0 61 65 61q54 0 62 -54l142 -848l115 461q14 57 64 57q49 0 64 -57l115 -461l142 848q9 54 62 54q65 0 65 -61q0 -7 -1 -13l-191 -1145q-10 -61 -65 -61q-49 0 -63 56l-128 512l-128 -512q-14 -56 -63 -56q-55 0 -65 61l-191 1145q-1 6 -1 13z" />
<glyph unicode="X" d="M63 63q0 19 12 37l360 540l-360 540q-12 18 -12 37q0 26 20.5 45t46.5 19q32 0 51 -29l331 -497l331 497q20 29 51 29q26 0 46.5 -19.5t20.5 -44.5q0 -19 -12 -37l-360 -540l360 -540q12 -18 12 -37q0 -26 -20.5 -45t-46.5 -19q-32 0 -51 29l-331 497l-331 -497 q-20 -29 -51 -29q-26 0 -46.5 19.5t-20.5 44.5z" />
<glyph unicode="Y" d="M63 1217q0 26 20.5 45t46.5 19q32 0 51 -29l331 -497l331 497q20 29 51 29q26 0 46.5 -19t20.5 -45q0 -19 -12 -37l-373 -560v-556q0 -64 -64 -64t-64 64v556l-373 560q-12 18 -12 37z" />
<glyph unicode="Z" d="M63 63q0 19 18 46l696 1043h-649q-64 0 -64 64t64 64l765 1q68 0 68 -64q0 -19 -18 -46l-696 -1043h649q64 0 64 -64t-64 -64l-765 -1q-67 0 -68 64z" />
<glyph unicode="[" d="M256 -320v1536q0 26 19 45t45 19h384q64 0 64 -64t-64 -64h-320v-1408h320q64 0 64 -64t-64 -64h-384q-26 0 -45 19t-19 45z" />
<glyph unicode="\" d="M63 1218q0 26 20.5 44.5t46.5 18.5q38 0 55 -36l768 -1537q8 -16 8 -31q0 -26 -20.5 -44.5t-46.5 -18.5q-38 0 -55 36l-768 1537q-8 15 -8 31z" />
<glyph unicode="]" d="M256 -320q0 64 64 64h320v1408h-320q-64 0 -64 64t64 64h384q26 0 45 -19t19 -45v-1536q0 -26 -19 -45t-45 -19h-384q-64 0 -64 64z" />
<glyph unicode="^" d="M191 961q0 25 20 44l256 256q20 20 44 20q26 0 46 -20l256 -256q20 -19 20 -44q0 -26 -19.5 -46t-46.5 -20q-25 0 -44 20l-211 211l-211 -211q-20 -20 -44 -20q-26 0 -46 19.5t-20 46.5z" />
<glyph unicode="_" d="M64 64q0 64 64 64h768q64 0 64 -64t-64 -64h-768q-64 0 -64 64z" />
<glyph unicode="`" d="M127 1219q0 26 20.5 44t46.5 18q42 0 58 -41l128 -320q5 -14 5 -27q0 -26 -20.5 -44t-46.5 -18q-42 0 -58 41l-128 320q-5 14 -5 27z" />
<glyph unicode="a" d="M64 320q0 148 144 241q125 79 283 79q172 0 298 -90v26q0 38 -26 76q-79 116 -272 116q-111 0 -220 -63q-22 -13 -38 -13q-26 0 -45 20t-19 47q0 63 134 105q104 32 188 32q157 0 282 -79q144 -92 144 -241v-512q0 -64 -64 -64t-64 85v5q-126 -90 -298 -90 q-158 0 -283 79q-144 92 -144 241zM192 320q0 -35 23 -71q78 -121 276 -121q67 0 125 18q67 20 115 62q58 51 58 112t-58 112q-49 43 -115 62q-58 18 -125 18q-198 0 -276 -121q-23 -36 -23 -71z" />
<glyph unicode="b" d="M107 448v768q0 64 64 64t64 -64v-448q124 128 298 128q180 0 305 -135q122 -131 122 -313t-122 -313q-125 -135 -305 -135t-304 135q-122 131 -122 313zM235 448q0 -129 84 -223q87 -97 214 -97t215 97q84 94 84 223t-84 223q-87 97 -215 97q-127 0 -214 -97 q-84 -94 -84 -223z" />
<glyph unicode="c" d="M64 448q0 196 162 326q151 122 352 122q94 0 192 -32q108 -36 168 -96q23 -23 23 -47q0 -26 -19.5 -46t-45.5 -20q-18 0 -42 16q-137 97 -276 97q-147 0 -261 -85q-125 -93 -125 -235t125 -235q113 -85 261 -85q138 0 276 96q23 16 41 17q26 0 46 -20t20 -46 q0 -25 -24 -48q-60 -60 -167 -95q-98 -32 -192 -32q-201 0 -352 122q-162 130 -162 326z" />
<glyph unicode="d" d="M64 448q0 177 113 310q118 138 292 138q161 0 278 -121v441q0 64 64 64t64 -64v-1152q0 -64 -64 -64q-47 0 -59 41q-5 18 -5 80q-116 -121 -278 -121q-175 0 -292 138q-113 132 -113 310zM192 448q0 -125 75 -218q81 -102 202 -102t203 102q75 93 75 218t-75 218 q-81 102 -203 102q-121 0 -202 -102q-75 -94 -75 -218z" />
<glyph unicode="e" d="M64 448q0 190 144 321q139 127 331 127q70 0 146 -25q85 -28 170 -89q105 -77 105 -146q0 -34 -33 -52l-647 -348q105 -108 259 -108q165 0 267 114q12 15 36 47t52 32q26 0 46.5 -19t20.5 -45q0 -16 -10 -35q-59 -102 -177 -163q-112 -59 -235 -59q-192 0 -331 127 q-144 131 -144 321zM192 448q0 -55 19 -104l589 316q-104 108 -261 108q-138 0 -240 -90q-107 -94 -107 -230z" />
<glyph unicode="f" d="M64 832q0 64 64 64h128q0 159 112.5 271.5t271.5 112.5q87 0 172 -41q90 -43 135 -113q14 -21 14 -39q0 -26 -20 -45t-47 -19q-21 0 -55 33q-48 46 -74 63q-54 33 -125 33q-106 0 -181 -75t-75 -181h320q64 0 64 -64t-64 -64h-320v-704q0 -64 -64 -64t-64 64v704h-128 q-64 0 -64 64z" />
<glyph unicode="g" d="M64 0q0 64 64 64t64 -64q0 -115 106 -189q95 -67 214 -67t214 67q106 74 106 189t-106 189q-95 67 -214 67q-144 0 -253 86q-118 93 -118 234t118 234q109 86 253 86h384q64 0 64 -64q0 -52 -55 -62q-11 -2 -59 -2h-36q73 -84 73 -192q0 -154 -137 -248 q214 -112 214 -328q0 -169 -143 -281q-131 -103 -305 -103t-305 103q-143 112 -143 281zM269 576q0 -86 81 -143q72 -49 162 -49t162 49q81 57 81 143t-81 143q-72 49 -162 49t-162 -49q-81 -56 -81 -143z" />
<glyph unicode="h" d="M149 64v1152q0 64 64 64t64 -64v-418q109 98 256 98q159 0 271.5 -112.5t112.5 -271.5v-448q0 -64 -64 -64t-64 64v448q0 106 -75 181t-181 75t-181 -75t-75 -181v-448q0 -64 -64 -64t-64 64z" />
<glyph unicode="i" d="M192 832q0 64 64 64h257q63 0 63 -64v-704h192q64 0 64 -64t-64 -64h-256q-64 0 -64 64v704h-192q-64 0 -64 64zM415 1183q0 40 28.5 68.5t68.5 28.5t68.5 -28.5t28.5 -68.5t-28.5 -67.5t-68.5 -27.5t-68.5 27.5t-28.5 67.5z" />
<glyph unicode="j" d="M63 -177q0 26 20 45t47 19q23 0 47 -24q121 -119 250 -119q132 0 226 94t94 226v704h-192q-64 0 -64 64t64 64h257q63 0 63 -63v-769q0 -185 -131.5 -316.5t-316.5 -131.5q-97 0 -194 44q-102 46 -154 122q-15 22 -16 41zM713 1183q0 40 29 68.5t69 28.5t68.5 -28.5 t28.5 -68.5t-28.5 -67.5t-68.5 -27.5t-69 27.5t-29 67.5z" />
<glyph unicode="k" d="M149 64v1152q0 64 64 64t64 -64v-756q4 25 36 46l546 379q18 12 38 12q26 0 45 -20.5t19 -46.5q0 -32 -28 -51l-479 -331l479 -331q28 -19 28 -51q0 -26 -19.5 -46.5t-44.5 -20.5q-20 0 -38 12l-546 379q-32 21 -36 46v-372q0 -64 -64 -64t-64 64z" />
<glyph unicode="l" d="M256 384v832q0 64 64 64t64 -64v-832q0 -106 75 -181t181 -75q93 0 166 64.5t88 64.5q26 0 46.5 -19t20.5 -45q0 -18 -14 -39q-45 -69 -135 -113q-85 -41 -172 -41q-159 0 -271.5 112.5t-112.5 271.5z" />
<glyph unicode="m" d="M64 64v768q0 64 64 64q44 0 59 -38q61 38 133 38q115 0 192 -87q77 87 192 87q106 0 181 -75t75 -181v-576q0 -64 -64 -64t-64 64v576q0 53 -37.5 90.5t-90.5 37.5t-90.5 -37.5t-37.5 -90.5v-576q0 -64 -64 -64t-64 64v576q0 53 -37.5 90.5t-90.5 37.5t-90.5 -37.5 t-37.5 -90.5v-576q0 -64 -64 -64t-64 64z" />
<glyph unicode="n" d="M149 64v768q0 64 64 64q65 0 64 -98q109 98 256 98q159 0 271.5 -112.5t112.5 -271.5v-448q0 -64 -64 -64t-64 64v448q0 106 -75 181t-181 75t-181 -75t-75 -181v-448q0 -64 -64 -64t-64 64z" />
<glyph unicode="o" d="M64 448q0 185 131.5 316.5t316.5 131.5t316.5 -131.5t131.5 -316.5t-131.5 -316.5t-316.5 -131.5t-316.5 131.5t-131.5 316.5zM192 448q0 -132 94 -226t226 -94t226 94t94 226t-94 226t-226 94t-226 -94t-94 -226z" />
<glyph unicode="p" d="M149 -320v1152q0 64 64 64q47 0 59 -41q5 -18 5 -80q116 121 278 121q175 0 292 -138q113 -133 113 -310t-113 -310q-118 -138 -292 -138q-161 0 -278 121v-441q0 -64 -64 -64t-64 64zM277 448q0 -125 75 -218q81 -102 203 -102q121 0 202 102q75 93 75 218t-75 218 q-81 102 -202 102t-203 -102q-75 -94 -75 -218z" />
<glyph unicode="q" d="M64 448q0 177 113 310q118 138 292 138q161 0 278 -121v32v5q0 84 64 84t64 -64v-1152q0 -64 -64 -64t-64 64v441q-116 -121 -278 -121q-175 0 -292 138q-113 132 -113 310zM192 448q0 -125 75 -218q81 -102 202 -102t203 102q75 93 75 218t-75 218q-81 102 -203 102 q-121 0 -202 -102q-75 -94 -75 -218z" />
<glyph unicode="r" d="M149 64v768q0 64 64 64q49 0 62 -48q2 -11 2 -55v-32q131 135 320 135q97 0 194 -44q102 -46 154 -122q16 -23 16 -41q0 -26 -20 -45t-47 -19q-24 0 -47 24q-118 119 -250 119t-226 -94t-94 -226v-384q0 -64 -64 -64t-64 64z" />
<glyph unicode="s" d="M122 210q0 26 20.5 44.5t46.5 18.5q29 0 53 -33q84 -112 259 -112q172 0 246 95q26 34 26 65q0 52 -60 97q-48 34 -109 49q-51 14 -116 14q-110 0 -197 55q-101 64 -101 169t104 169q89 55 201 55q70 0 139 -25q79 -28 116 -77q17 -22 17 -41q0 -26 -20 -45.5t-46 -19.5 q-11 0 -70.5 40t-135.5 40q-116 0 -163 -63q-14 -18 -14 -33q0 -61 107 -87q36 -9 85 -9q143 0 258 -71q133 -83 133 -217q0 -137 -137 -218q-117 -70 -263 -70q-109 0 -209 42q-115 49 -161 135q-9 18 -9 33z" />
<glyph unicode="t" d="M64 832q0 64 64 64h128v320q0 64 64 64t64 -64v-320h320q64 0 64 -64t-64 -64h-320v-384q0 -106 75 -181t181 -75q72 0 125 33q26 16 74 63q34 33 55 33q26 0 46.5 -19t20.5 -45q0 -18 -14 -39q-45 -69 -135 -113q-85 -41 -172 -41q-159 0 -271.5 112.5t-112.5 271.5v384 h-128q-64 0 -64 64z" />
<glyph unicode="u" d="M107 405v427q0 64 64 64t64 -64v-427q0 -114 81.5 -195.5t195.5 -81.5t195.5 81.5t81.5 195.5v427q0 64 64 64t64 -64v-427q0 -168 -118.5 -286.5t-286.5 -118.5t-286.5 118.5t-118.5 286.5z" />
<glyph unicode="v" d="M63 834q0 26 20.5 44.5t46.5 18.5q38 0 55 -36l327 -654l327 654q18 36 55 36q26 0 46.5 -18.5t20.5 -44.5q0 -15 -8 -31l-378 -757q-24 -47 -63 -47t-63 47l-378 757q-8 15 -8 31z" />
<glyph unicode="w" d="M63 835q0 61 67 61q46 0 59 -45l169 -564l87 288q-75 249 -75 260q0 61 67 61q46 0 60 -45l169 -564l169 564q14 45 59 45q67 0 67 -61q0 -10 -4 -22l-227 -758q-16 -55 -64 -55t-64 55l-90 297l-90 -297q-16 -55 -64 -55t-64 55l-227 758q-3 11 -4 22z" />
<glyph unicode="x" d="M63 65q0 25 20 44l339 339l-339 339q-20 20 -20 44q0 26 19.5 46t46.5 20q25 0 44 -20l339 -339l339 339q20 20 44 20q26 0 46 -20t20 -46q0 -25 -20 -44l-339 -339l339 -339q20 -20 20 -44q0 -26 -19.5 -46t-46.5 -20q-25 0 -44 20l-339 339l-339 -339q-20 -20 -44 -20 q-26 0 -46 19.5t-20 46.5z" />
<glyph unicode="y" d="M107 384v448q0 64 64 64t64 -64v-448q0 -106 75 -181t181 -75t181 75t75 180v449q0 64 64 64t64 -64v-832q0 -159 -113 -271.5t-271 -112.5q-101 0 -191 51q-94 53 -141 139q-9 19 -10 34q0 26 20.5 45t46.5 19q29 0 54 -33q96 -127 221 -127q106 0 181 75t75 181v98 q-109 -98 -256 -98q-159 0 -271.5 112.5t-112.5 271.5z" />
<glyph unicode="z" d="M63 65q0 25 28 53l651 650h-614q-64 0 -64 64t64 64l766 1q67 0 67 -66q0 -25 -28 -53l-651 -650h614q64 0 64 -64t-64 -64l-766 -1q-67 0 -67 66z" />
<glyph unicode="{" d="M256 448q0 64 64 64q53 0 90.5 37.5t37.5 90.5v384q0 106 75 181t181 75q64 0 64 -64t-64 -64q-53 0 -90.5 -37.5t-37.5 -90.5v-384q0 -115 -87 -192q87 -77 87 -192v-384q0 -53 37.5 -90.5t90.5 -37.5q64 0 64 -64t-64 -64q-106 0 -181 75t-75 181v384q0 53 -37.5 90.5 t-90.5 37.5q-64 0 -64 64z" />
<glyph unicode="|" d="M448 -320v1536q0 64 64 64t64 -64v-1536q0 -64 -64 -64t-64 64z" />
<glyph unicode="}" d="M256 -320q0 64 64 64q53 0 90.5 37.5t37.5 90.5v384q0 115 87 192q-87 77 -87 192v384q0 53 -37.5 90.5t-90.5 37.5q-64 0 -64 64t64 64q106 0 181 -75t75 -181v-384q0 -53 37.5 -90.5t90.5 -37.5q64 0 64 -64t-64 -64q-53 0 -90.5 -37.5t-37.5 -90.5v-384 q0 -106 -75 -181t-181 -75q-64 0 -64 64z" />
<glyph unicode="~" d="M191 445q0 20 16 47q49 84 177 84q73 0 151 -64t105 -64q52 0 74 32t52 32q67 0 67 -61q0 -20 -16 -47q-49 -84 -177 -84q-73 0 -151 64t-105 64q-44 0 -67 -20q-15 -44 -59 -44q-67 0 -67 61z" />
<glyph unicode="&#xa0;" />
<glyph unicode="&#xa1;" d="M415 799q0 40 28.5 68.5t68.5 28.5t68.5 -28.5t28.5 -68.5t-28.5 -67.5t-68.5 -27.5t-68.5 27.5t-28.5 67.5zM448 -320v832q0 64 64 64t64 -64v-832q0 -64 -64 -64t-64 64z" />
<glyph unicode="&#xa2;" d="M64 448q0 178 138 305q129 119 312 140v152q0 64 64 64t64 -64v-152q190 -20 296 -125q23 -23 23 -47q0 -26 -19.5 -46t-45.5 -20q-18 0 -42 16q-113 79 -212 93v-632q100 14 212 92q23 16 41 17q26 0 46 -20t20 -46q0 -25 -24 -48q-106 -103 -295 -124v-152 q0 -64 -64 -64t-64 64v152q-183 20 -312 140q-138 127 -138 305zM192 448q0 -125 101 -215q92 -83 221 -101v632q-129 -18 -221 -101q-101 -90 -101 -215z" />
<glyph unicode="&#xa3;" d="M61 64q0 64 67 64q53 0 90.5 37.5t37.5 90.5v256h-128q-64 0 -64 64t64 64h128v128h-128q-64 0 -64 64t64 64h128v128q0 106 75 181t181 75q73 0 125 -26q67 -33 67 -99q0 -67 -51 -66q-19 0 -58 31.5t-83 31.5q-53 0 -90.5 -37.5t-37.5 -90.5v-128h128q64 0 64 -64 t-64 -64h-128v-128h128q64 0 64 -64t-64 -64h-128v-256q0 -69 -34 -128h546q64 0 64 -64t-64 -64h-768q-67 0 -67 64z" />
<glyph unicode="&#xa4;" d="M63 65q0 26 91 115q-90 119 -90 268t90 268q-90 90 -91 115q0 26 19.5 46t46.5 20q26 0 115 -91q119 90 268 90t268 -90q90 90 115 91q26 0 46 -20t20 -46t-91 -115q90 -119 90 -268t-90 -268q90 -90 91 -115q0 -26 -19.5 -46t-46.5 -20q-26 0 -115 91q-119 -90 -268 -90 t-268 90q-90 -90 -115 -91q-26 0 -46 19.5t-20 46.5zM192 448q0 -132 94 -226t226 -94t226 94t94 226t-94 226t-226 94t-226 -94t-94 -226z" />
<glyph unicode="&#xa5;" d="M63 1217q0 26 20.5 45t46.5 19q32 0 51 -29l331 -497l331 497q20 29 51 29q26 0 46.5 -19t20.5 -45q0 -19 -12 -37l-318 -476h137q64 0 64 -64t-64 -64h-192v-128h192q64 0 64 -64t-64 -64h-192v-256q0 -64 -64 -64t-64 64v256h-192q-64 0 -64 64t64 64h192v128h-192 q-64 0 -64 64t64 64h137l-318 476q-12 18 -12 37z" />
<glyph unicode="&#xa6;" d="M448 -320v640q0 64 64 64t64 -64v-640q0 -64 -64 -64t-64 64zM448 576v640q0 64 64 64t64 -64v-640q0 -64 -64 -64t-64 64z" />
<glyph unicode="&#xa7;" d="M64 448q0 162 178 256q-178 94 -178 256q0 151 154 242q131 78 294 78q106 0 208 -37q117 -41 174 -114q16 -21 17 -42q0 -26 -20.5 -45.5t-46.5 -19.5q-21 0 -47 23q-119 107 -285 107q-214 0 -296 -123q-24 -36 -24 -69t24 -69q82 -123 296 -123q162 0 294 -78 q154 -91 154 -242q0 -162 -178 -256q178 -94 178 -256q0 -151 -154 -242q-131 -78 -294 -78q-106 0 -208 37q-117 41 -174 114q-16 21 -17 42q0 26 20.5 45.5t46.5 19.5q21 0 47 -23q119 -107 285 -107q214 0 296 123q24 36 24 69t-24 69q-82 123 -296 123q-162 0 -294 78 q-154 91 -154 242zM192 448q0 -61 64 -113q52 -42 120 -61q63 -18 136 -18t136 18q68 20 120 61q64 52 64 113t-64 113q-52 42 -120 61q-63 18 -136 18t-136 -18q-68 -20 -120 -61q-64 -52 -64 -113z" />
<glyph unicode="&#xa8;" d="M224 1120q0 40 28 68t68 28t68 -28t28 -68t-28.5 -68t-67.5 -28q-40 0 -68 28t-28 68zM608 1120q0 40 28 68t68 28t68 -28t28 -68t-28.5 -68t-67.5 -28q-40 0 -68 28t-28 68z" />
<glyph unicode="&#xa9;" d="M64 640q0 230 108 417q128 223 340 223t340 -223q108 -187 108 -417t-108 -417q-128 -223 -340 -223t-340 223q-108 188 -108 417zM192 640q0 -112 28 -210q33 -116 103 -200q85 -102 189 -102t189 102q69 84 103 200q28 98 28 210t-28 210q-33 116 -103 200 q-85 102 -189 102t-189 -102q-69 -84 -103 -200q-28 -98 -28 -210zM256 640q0 129 62 232q73 120 194 120q123 0 189 -113q12 -20 12 -36q0 -26 -20.5 -45t-46.5 -19q-27 0 -62.5 42.5t-71.5 42.5q-22 0 -48 -19q-80 -60 -80 -205t80 -205q26 -19 48 -19q36 0 71.5 42.5 t62.5 42.5q26 0 46.5 -19t20.5 -45q0 -16 -12 -36q-66 -113 -189 -113q-120 0 -194 120q-62 103 -62 232z" />
<glyph unicode="&#xaa;" d="M160 448q0 64 64 64h576q64 0 64 -64t-64 -64h-576q-64 0 -64 64zM160 858q0 117 122 186q102 57 230 57q124 0 223 -54q-15 53 -93 82q-62 23 -130 23q-85 0 -170 -43q-21 -11 -35 -11q-26 0 -45 20.5t-19 47.5q0 55 111 89q83 25 158 25q127 0 230 -57 q123 -69 122 -186v-359q0 -64 -64 -64q-58 0 -64 55q-100 -55 -224 -55q-127 0 -230 58q-122 69 -122 186zM288 858q0 -26 31 -56q65 -60 193 -60q142 0 203 71q21 25 21 45t-22 45q-61 70 -202 70q-151 0 -209 -78q-15 -21 -15 -37z" />
<glyph unicode="&#xab;" d="M127 448q0 14 12 37l188 376q18 36 55 36q26 0 46.5 -18.5t20.5 -44.5q0 -15 -8 -31l-177 -355l177 -355q8 -16 8 -31q0 -26 -20.5 -44.5t-46.5 -18.5q-38 0 -55 36l-188 376q-12 23 -12 37zM575 448q0 14 12 37l188 376q18 36 55 36q26 0 46.5 -18.5t20.5 -44.5 q0 -15 -8 -31l-177 -355l177 -355q8 -16 8 -31q0 -26 -20.5 -44.5t-46.5 -18.5q-38 0 -55 36l-188 376q-12 23 -12 37z" />
<glyph unicode="&#xac;" d="M64 448q0 64 64 64h683q26 0 45 -19t19 -45v-384q0 -64 -64 -64t-64 64v320h-619q-64 0 -64 64z" />
<glyph unicode="&#xad;" d="M256 448q0 64 64 64h384q64 0 64 -64t-64 -64h-384q-64 0 -64 64z" />
<glyph unicode="&#xae;" d="M64 640q0 230 108 417q128 223 340 223t340 -223q108 -187 108 -417t-108 -417q-128 -223 -340 -223t-340 223q-108 188 -108 417zM192 640q0 -112 28 -210q33 -116 103 -200q85 -102 189 -102t189 102q69 84 103 200q28 98 28 210t-28 210q-33 116 -103 200 q-85 102 -189 102t-189 -102q-69 -84 -103 -200q-28 -98 -28 -210zM320 352v576q0 25 19 44.5t45 19.5h160q92 0 158 -66t66 -158q0 -78 -48 -139t-124 -79l153 -152q20 -21 20 -46q0 -26 -19.5 -45.5t-46.5 -19.5q-25 0 -44 19l-211 211v-165q0 -64 -64 -64t-64 64z M448 672h96q39 0 67.5 28.5t28.5 67.5t-28 67.5t-68 28.5h-96v-192z" />
<glyph unicode="&#xb0;" d="M192 960q0 132 94 226t226 94t226 -94t94 -226t-94 -226t-226 -94t-226 94t-94 226zM320 960q0 -79 56.5 -135.5t135.5 -56.5t135.5 56.5t56.5 135.5t-56.5 135.5t-135.5 56.5t-135.5 -56.5t-56.5 -135.5z" />
<glyph unicode="&#xb1;" d="M64 64q0 64 64 64h768q64 0 64 -64t-64 -64h-768q-64 0 -64 64zM64 704q0 64 64 64h320v320q0 64 64 64t64 -64v-320h320q64 0 64 -64t-64 -64h-320v-320q0 -64 -64 -64t-64 64v320h-320q-64 0 -64 64z" />
<glyph unicode="&#xb2;" d="M198 537q0 30 37 59q40 20 115 59q338 183 338 337q0 69 -54 116q-52 44 -122 44t-122 -44q-54 -47 -54 -116q0 -64 -64 -64t-64 64q0 122 92 206q90 82 212 82q123 0 212 -82q91 -84 92 -206q0 -130 -118 -231q-113 -77 -224 -153h278q64 0 64 -64t-64 -64h-480 q-74 0 -74 57z" />
<glyph unicode="&#xb3;" d="M201 534q0 26 20 44.5t47 18.5q20 0 79.5 -61.5t146.5 -61.5q79 0 140 52t61 130t-63 132q-59 50 -138 50q-59 0 -116.5 -36.5t-72.5 -36.5q-26 0 -45 19t-19 45q0 29 25 50l319 273h-320q-64 0 -64 64t64 64h494q72 0 72 -55q0 -31 -31 -58l-242 -206 q113 -21 189 -106.5t76 -198.5q0 -131 -99 -223q-96 -88 -230 -87q-83 0 -161 41q-84 43 -121 112q-11 20 -11 35z" />
<glyph unicode="&#xb4;" d="M319 1090q0 38 36 55l256 128q15 8 31 8q26 0 44.5 -20.5t18.5 -46.5q0 -38 -36 -55l-256 -128q-15 -8 -31 -8q-26 0 -44.5 20.5t-18.5 46.5z" />
<glyph unicode="&#xb5;" d="M149 -320v1152q0 64 64 64t64 -64v-469q0 -97 69 -166t166 -69q96 0 165.5 68.5t69.5 165.5v470q0 64 64 64t64 -64v-768q0 -64 -64 -64q-65 0 -64 86q-102 -86 -235 -86t-235 86v-406q0 -64 -64 -64t-64 64z" />
<glyph unicode="&#xb6;" d="M64 960q0 132 94 226t226 94h469q26 0 45 -19t19 -45v-1152q0 -64 -64 -64t-64 64v1088h-256v-1088q0 -64 -64 -64t-64 64v576h-21q-132 0 -226 94t-94 226zM192 960q0 -79 56.5 -135.5t135.5 -56.5h21v384h-21q-79 0 -135.5 -56.5t-56.5 -135.5z" />
<glyph unicode="&#xb7;" d="M415 544q0 39 28.5 67t68.5 28t68.5 -28t28.5 -67q0 -40 -28.5 -68.5t-68.5 -28.5t-68.5 28.5t-28.5 68.5z" />
<glyph unicode="&#xb8;" d="M268 -222q0 26 20.5 44.5t46.5 18.5t66.5 -48.5t97.5 -48.5q53 0 90.5 37.5t37.5 90.5t-37.5 90.5t-90.5 37.5q-64 0 -64 64t64 64q106 0 181 -75t75 -181t-75 -181t-181 -75q-67 0 -128 35q-64 36 -94 94q-9 18 -9 33z" />
<glyph unicode="&#xb9;" d="M287 1038q0 26 21 46l184 170q28 26 52 27q65 0 64 -77v-596h19.5h19.5q89 1 89 -64q0 -64 -64 -64h-256q-64 0 -64 64q0 49 45 60q15 4 83 4v460l-84 -78q-20 -18 -44 -18q-26 0 -45.5 20t-19.5 46z" />
<glyph unicode="&#xba;" d="M160 448q0 64 64 64h576q64 0 64 -64t-64 -64h-576q-64 0 -64 64zM160 947q0 141 106 238q103 95 246 95t246 -95q106 -97 106 -238t-106 -238q-103 -95 -246 -95t-246 95q-106 97 -106 238zM288 947q0 -88 67.5 -146.5t156.5 -58.5t156.5 58.5t67.5 146.5t-69 148 q-67 57 -155 57q-89 0 -155 -57q-68 -60 -69 -148z" />
<glyph unicode="&#xbb;" d="M127 62q0 15 8 31l177 355l-177 355q-8 15 -8 31q0 26 20.5 44.5t46.5 18.5q38 0 55 -36l188 -376q12 -23 12 -37t-12 -37l-188 -376q-18 -36 -55 -36q-26 0 -46.5 18.5t-20.5 44.5zM575 62q0 15 8 31l177 355l-177 355q-8 15 -8 31q0 26 20.5 44.5t46.5 18.5 q38 0 55 -36l188 -376q12 -23 12 -37t-12 -37l-188 -376q-18 -36 -55 -36q-26 0 -46.5 18.5t-20.5 44.5z" />
<glyph unicode="&#xbc;" d="M63 63q0 19 12 37l768 1152q20 29 51 29q26 0 46.5 -19t20.5 -45q0 -19 -12 -37l-768 -1152q-20 -29 -51 -29q-26 0 -46.5 19.5t-20.5 44.5zM63 1293q0 21 16 40l136 171q26 33 56 33q66 0 65 -76v-597q96 1 96 -64q0 -64 -64 -64h-192q-64 0 -64 64q0 65 96 64v426 q-49 -62 -78 -62q-26 0 -46.5 19t-20.5 46zM397 -61q0 19 11 40l287 537q24 44 63 45q58 0 58 -75v-473q9 0 26.5 1t26.5 1q91 0 91 -66q0 -51 -52 -62q-9 -2 -92 -2v-205q0 -64 -64 -64t-64 64v205h-224q-67 0 -67 54zM571 13h117v218z" />
<glyph unicode="&#xbd;" d="M63 63q0 19 12 37l768 1152q20 29 51 29q26 0 46.5 -19t20.5 -45q0 -19 -12 -37l-768 -1152q-20 -29 -51 -29q-26 0 -46.5 19.5t-20.5 44.5zM63 1293q0 21 16 40l136 171q26 33 56 33q66 0 65 -76v-597q96 1 96 -64q0 -64 -64 -64h-192q-64 0 -64 64q0 65 96 64v426 q-49 -62 -78 -62q-26 0 -46.5 19t-20.5 46zM463 -201q0 38 96 111q141 109 177 148q96 100 96 198q0 57 -29 105q-33 55 -87 55t-87 -55q-29 -48 -29 -105q0 -64 -64 -64t-64 64q0 112 65 196q71 91 179 92q108 0 179 -92q65 -84 65 -196q0 -124 -85 -220l-178 -164h199 q64 0 64 -64t-64 -64h-360q-73 0 -73 55z" />
<glyph unicode="&#xbe;" d="M63 63q0 19 12 37l367 551q-63 -49 -142 -49q-73 0 -137 45.5t-93 114.5q-7 16 -7 29q0 26 20.5 44t47.5 18q31 0 71.5 -61.5t97.5 -61.5q61 0 100 62q33 55 33 120q0 66 -33 120q-39 63 -100 63q-40 0 -78.5 -37.5t-63.5 -37.5q-26 0 -45.5 19t-19.5 45q0 24 19 45 l245 279h-229q-64 0 -64 64t64 64h369q70 0 70 -42q0 -46 -86 -145q-61 -67 -123 -134q94 -25 151 -116q53 -85 52 -187q0 -55 -16 -106l298 446q20 29 51 29q26 0 46.5 -19t20.5 -45q0 -19 -12 -37l-768 -1152q-20 -29 -51 -29q-26 0 -46.5 19.5t-20.5 44.5zM397 -61 q0 19 11 40l287 537q24 44 63 45q58 0 58 -75v-473q9 0 26.5 1t26.5 1q91 0 91 -66q0 -51 -52 -62q-9 -2 -92 -2v-205q0 -64 -64 -64t-64 64v205h-224q-67 0 -67 54zM571 13h117v218z" />
<glyph unicode="&#xbf;" d="M64 -64q0 151 154 242q131 78 294 78q116 0 164 65q12 16 12 31q0 20 -24 45q-50 51 -152 51q-28 0 -69.5 -11t-53.5 -11q-26 0 -44 20t-18 46q0 84 185 84q112 0 201 -55q103 -64 103 -169q0 -106 -103 -169q-89 -55 -201 -55q-211 0 -294 -120q-26 -37 -26 -72t26 -72 q84 -120 294 -120q211 0 294 120q26 37 26 72q0 64 64 64t64 -64q0 -151 -154 -242q-131 -78 -294 -78q-162 0 -294 78q-154 91 -154 242zM415 799q0 40 28.5 68.5t68.5 28.5t68.5 -28.5t28.5 -68.5t-28.5 -67.5t-68.5 -27.5t-68.5 27.5t-28.5 67.5z" />
<glyph unicode="&#xc0;" d="M63 61q0 11 4 23l381 1142q18 54 64 54t64 -54l381 -1142q4 -12 4 -23q0 -61 -67 -61q-44 0 -59 44l-113 340h-420l-113 -340q-15 -44 -59 -44q-67 0 -67 61zM319 1598q0 26 18.5 46.5t44.5 20.5q15 0 31 -8l256 -128q36 -17 36 -55q0 -26 -18.5 -46.5t-44.5 -20.5 q-15 0 -31 8l-256 128q-36 18 -36 55zM345 512h334l-167 502z" />
<glyph unicode="&#xc1;" d="M63 61q0 11 4 23l381 1142q18 54 64 54t64 -54l381 -1142q4 -12 4 -23q0 -61 -67 -61q-44 0 -59 44l-113 340h-420l-113 -340q-15 -44 -59 -44q-67 0 -67 61zM332 1474q0 38 36 55l256 128q15 8 31 8q26 0 44.5 -20.5t18.5 -46.5q0 -38 -36 -55l-256 -128q-15 -8 -31 -8 q-26 0 -44.5 20.5t-18.5 46.5zM345 512h334l-167 502z" />
<glyph unicode="&#xc2;" d="M63 61q0 11 4 23l381 1142q18 54 64 54t64 -54l381 -1142q4 -12 4 -23q0 -61 -67 -61q-44 0 -59 44l-113 340h-420l-113 -340q-15 -44 -59 -44q-67 0 -67 61zM255 1474q0 32 29 51l187 124q23 15 41 16q18 0 41 -16l187 -124q29 -19 29 -51q0 -26 -19.5 -46.5 t-44.5 -20.5q-19 0 -37 12l-156 104l-156 -104q-18 -12 -37 -12q-26 0 -45 20.5t-19 46.5zM345 512h334l-167 502z" />
<glyph unicode="&#xc3;" d="M63 61q0 11 4 23l381 1142q18 54 64 54t64 -54l381 -1142q4 -12 4 -23q0 -61 -67 -61q-44 0 -59 44l-113 340h-420l-113 -340q-15 -44 -59 -44q-67 0 -67 61zM204 1533q0 20 15 47q49 84 178 84q73 0 150.5 -64t105.5 -64q52 0 73.5 32t52.5 32q67 0 67 -61 q0 -20 -16 -47q-49 -84 -177 -84q-73 0 -151 64t-105 64q-44 0 -68 -20q-15 -44 -58 -44q-67 0 -67 61zM345 512h334l-167 502z" />
<glyph unicode="&#xc4;" d="M63 61q0 11 4 23l381 1142q18 54 64 54t64 -54l381 -1142q4 -12 4 -23q0 -61 -67 -61q-44 0 -59 44l-113 340h-420l-113 -340q-15 -44 -59 -44q-67 0 -67 61zM224 1504q0 40 28 68t68 28t68 -28t28 -68t-28 -68t-68 -28t-68 28t-28 68zM345 512h334l-167 502zM608 1504 q0 40 28 68t68 28t68 -28t28 -68t-28 -68t-68 -28t-68 28t-28 68z" />
<glyph unicode="&#xc5;" d="M63 61q0 11 4 23l381 1142q18 54 64 54t64 -54l381 -1142q4 -12 4 -23q0 -61 -67 -61q-44 0 -59 44l-113 340h-420l-113 -340q-15 -44 -59 -44q-67 0 -67 61zM327 1477q0 76 54 130.5t131 54.5t131.5 -54.5t54.5 -130.5q0 -77 -54.5 -129.5t-131.5 -52.5t-131 52.5 t-54 129.5zM345 512h334l-167 502zM455 1477q0 -55 57 -54q58 -1 58 54q0 57 -58 57q-57 0 -57 -57z" />
<glyph unicode="&#xc6;" d="M63 61q0 13 5 27l459 1145q9 21 19 32l-3 -3q20 19 44 19l309 -1q64 0 64 -64t-64 -64h-243v-448h243q64 0 64 -64t-64 -64h-243v-448h243q64 0 64 -64t-64 -64h-307q-64 0 -64 64v320h-200l-137 -344q-16 -41 -58 -41q-26 0 -46.5 18.5t-20.5 43.5zM376 512h149v372z M543 1262zM546 1265l6 5q-2 -1 -6 -5z" />
<glyph unicode="&#xc7;" d="M64 640q0 241 133 430q149 210 381 210q105 0 207 -54t161 -139q15 -21 15 -40q0 -26 -20 -45.5t-47 -19.5q-24 0 -48 26q-12 15 -38 42q-101 102 -230 102q-120 0 -220 -93q-89 -83 -132 -207q-34 -100 -34 -212t34 -212q43 -125 132 -207q100 -93 220 -93 q130 0 230 102q12 15 38 42q25 26 48 26q26 0 46.5 -19.5t20.5 -45.5q0 -41 -77 -108q-63 -54 -117 -81q67 -73 67 -172q0 -106 -75 -181t-181 -75q-151 0 -222 129q-9 17 -10 33q0 26 20.5 44.5t47.5 18.5q25 0 66 -48.5t98 -48.5q53 0 90.5 37.5t37.5 90.5t-37.5 90.5 t-90.5 37.5q-231 0 -381 210q-133 189 -133 430z" />
<glyph unicode="&#xc8;" d="M149 64v1152q0 26 19.5 45t44.5 19h683q64 0 64 -64t-64 -64h-619v-448h619q64 0 64 -64t-64 -64h-619v-448h619q64 0 64 -64t-64 -64h-683q-26 0 -45 19t-19 45zM383 1598q0 26 18.5 46.5t44.5 20.5q15 0 31 -8l256 -128q36 -17 36 -55q0 -26 -18.5 -46.5t-44.5 -20.5 q-15 0 -31 8l-256 128q-36 18 -36 55z" />
<glyph unicode="&#xc9;" d="M149 64v1152q0 26 19.5 45t44.5 19h683q64 0 64 -64t-64 -64h-619v-448h619q64 0 64 -64t-64 -64h-619v-448h619q64 0 64 -64t-64 -64h-683q-26 0 -45 19t-19 45zM383 1474q0 38 36 55l256 128q15 8 31 8q26 0 44.5 -20.5t18.5 -46.5q0 -38 -36 -55l-256 -128 q-15 -8 -31 -8q-26 0 -44.5 20.5t-18.5 46.5z" />
<glyph unicode="&#xca;" d="M149 64v1152q0 26 19.5 45t44.5 19h683q64 0 64 -64t-64 -64h-619v-448h619q64 0 64 -64t-64 -64h-619v-448h619q64 0 64 -64t-64 -64h-683q-26 0 -45 19t-19 45zM319 1474q0 32 29 51l187 124q23 15 41 16q18 0 41 -16l187 -124q29 -19 29 -51q0 -26 -19.5 -46.5 t-44.5 -20.5q-19 0 -37 12l-156 104l-156 -104q-18 -12 -37 -12q-26 0 -45 20.5t-19 46.5z" />
<glyph unicode="&#xcb;" d="M149 64v1152q0 26 19.5 45t44.5 19h683q64 0 64 -64t-64 -64h-619v-448h619q64 0 64 -64t-64 -64h-619v-448h619q64 0 64 -64t-64 -64h-683q-26 0 -45 19t-19 45zM288 1504q0 40 28 68t67 28q40 0 68.5 -28t28.5 -68t-28.5 -68t-68.5 -28q-39 0 -67 28t-28 68zM672 1504 q0 40 28 68t67 28q40 0 68.5 -28t28.5 -68t-28.5 -68t-68.5 -28q-39 0 -67 28t-28 68z" />
<glyph unicode="&#xcc;" d="M192 64q0 64 64 64h189v1024h-189q-64 0 -64 64t64 64h512q64 0 64 -64t-64 -64h-195v-1024h195q64 0 64 -64t-64 -64h-512q-64 0 -64 64zM319 1598q0 26 18.5 46.5t44.5 20.5q15 0 31 -8l256 -128q36 -17 36 -55q0 -26 -18.5 -46.5t-44.5 -20.5q-15 0 -31 8l-256 128 q-36 18 -36 55z" />
<glyph unicode="&#xcd;" d="M192 64q0 64 64 64h189v1024h-189q-64 0 -64 64t64 64h512q64 0 64 -64t-64 -64h-195v-1024h195q64 0 64 -64t-64 -64h-512q-64 0 -64 64zM319 1474q0 38 36 55l256 128q15 8 31 8q26 0 44.5 -20.5t18.5 -46.5q0 -38 -36 -55l-256 -128q-15 -8 -31 -8q-26 0 -44.5 20.5 t-18.5 46.5z" />
<glyph unicode="&#xce;" d="M192 64q0 64 64 64h192v1024h-192q-64 0 -64 64t64 64h512q64 0 64 -64t-64 -64h-192v-1024h192q64 0 64 -64t-64 -64h-512q-64 0 -64 64zM255 1474q0 32 29 51l187 124q23 15 41 16q18 0 41 -16l187 -124q29 -19 29 -51q0 -26 -19.5 -46.5t-44.5 -20.5q-19 0 -37 12 l-156 104l-156 -104q-18 -12 -37 -12q-26 0 -45 20.5t-19 46.5z" />
<glyph unicode="&#xcf;" d="M192 64q0 64 64 64h192v1024h-192q-64 0 -64 64t64 64h512q64 0 64 -64t-64 -64h-192v-1024h192q64 0 64 -64t-64 -64h-512q-64 0 -64 64zM224 1504q0 40 28 68t68 28q39 0 67.5 -28t28.5 -68t-28.5 -68t-67.5 -28q-40 0 -68 28t-28 68zM608 1504q0 40 28 68t68 28 q39 0 67.5 -28t28.5 -68t-28.5 -68t-67.5 -28q-40 0 -68 28t-28 68z" />
<glyph unicode="&#xd0;" d="M64 640q0 64 64 64h128v512q0 26 19 45t45 19q265 0 452.5 -187.5t187.5 -452.5t-187.5 -452.5t-452.5 -187.5q-26 0 -45 19t-19 45v512h-128q-64 0 -64 64zM384 132q192 24 320 169.5t128 338.5t-128 338.5t-320 169.5v-444h128q64 0 64 -64t-64 -64h-128v-444z" />
<glyph unicode="&#xd1;" d="M148 1217q0 64 67 64q37 0 59 -44l473 -910v889q0 64 64 64t64 -64l1 -1153q0 -64 -67 -64q-37 0 -59 44l-473 910v-889q0 -64 -64 -64t-64 64zM191 1533q0 20 16 47q49 84 177 84q73 0 151 -64t105 -64q52 0 74 32t52 32q67 0 67 -61q0 -20 -16 -47q-49 -84 -177 -84 q-73 0 -151 64t-105 64q-44 0 -67 -20q-15 -44 -59 -44q-67 0 -67 61z" />
<glyph unicode="&#xd2;" d="M64 640q0 230 108 417q128 223 340 223t340 -223q108 -187 108 -417t-108 -417q-128 -223 -340 -223t-340 223q-108 188 -108 417zM192 640q0 -112 28 -210q33 -116 103 -200q85 -102 189 -102t189 102q69 84 103 200q28 98 28 210t-28 210q-33 116 -103 200 q-85 102 -189 102t-189 -102q-69 -84 -103 -200q-28 -98 -28 -210zM332 1598q0 26 18.5 46.5t44.5 20.5q15 0 31 -8l256 -128q36 -17 36 -55q0 -26 -18.5 -46.5t-44.5 -20.5q-15 0 -31 8l-256 128q-36 18 -36 55z" />
<glyph unicode="&#xd3;" d="M64 640q0 230 108 417q128 223 340 223t340 -223q108 -187 108 -417t-108 -417q-128 -223 -340 -223t-340 223q-108 188 -108 417zM192 640q0 -112 28 -210q33 -116 103 -200q85 -102 189 -102t189 102q69 84 103 200q28 98 28 210t-28 210q-33 116 -103 200 q-85 102 -189 102t-189 -102q-69 -84 -103 -200q-28 -98 -28 -210zM332 1474q0 38 36 55l256 128q15 8 31 8q26 0 44.5 -20.5t18.5 -46.5q0 -38 -36 -55l-256 -128q-15 -8 -31 -8q-26 0 -44.5 20.5t-18.5 46.5z" />
<glyph unicode="&#xd4;" d="M64 640q0 230 108 417q128 223 340 223t340 -223q108 -187 108 -417t-108 -417q-128 -223 -340 -223t-340 223q-108 188 -108 417zM192 640q0 -112 28 -210q33 -116 103 -200q85 -102 189 -102t189 102q69 84 103 200q28 98 28 210t-28 210q-33 116 -103 200 q-85 102 -189 102t-189 -102q-69 -84 -103 -200q-28 -98 -28 -210zM255 1474q0 32 29 51l187 124q23 15 41 16q18 0 41 -16l187 -124q29 -19 29 -51q0 -26 -19.5 -46.5t-44.5 -20.5q-19 0 -37 12l-156 104l-156 -104q-18 -12 -37 -12q-26 0 -45 20.5t-19 46.5z" />
<glyph unicode="&#xd5;" d="M64 640q0 230 108 417q128 223 340 223t340 -223q108 -187 108 -417t-108 -417q-128 -223 -340 -223t-340 223q-108 188 -108 417zM192 640q0 -112 28 -210q33 -116 103 -200q85 -102 189 -102t189 102q69 84 103 200q28 98 28 210t-28 210q-33 116 -103 200 q-85 102 -189 102t-189 -102q-69 -84 -103 -200q-28 -98 -28 -210zM204 1533q0 20 15 47q49 84 178 84q73 0 150.5 -64t105.5 -64q52 0 73.5 32t52.5 32q67 0 67 -61q0 -20 -16 -47q-49 -84 -177 -84q-73 0 -151 64t-105 64q-44 0 -68 -20q-15 -44 -58 -44q-67 0 -67 61z " />
<glyph unicode="&#xd6;" d="M64 640q0 230 108 417q128 223 340 223t340 -223q108 -187 108 -417t-108 -417q-128 -223 -340 -223t-340 223q-108 188 -108 417zM192 640q0 -112 28 -210q33 -116 103 -200q85 -102 189 -102t189 102q69 84 103 200q28 98 28 210t-28 210q-33 116 -103 200 q-85 102 -189 102t-189 -102q-69 -84 -103 -200q-28 -98 -28 -210zM224 1504q0 40 28 68t68 28t68 -28t28 -68t-28 -68t-68 -28t-68 28t-28 68zM608 1504q0 40 28 68t68 28t68 -28t28 -68t-28 -68t-68 -28t-68 28t-28 68z" />
<glyph unicode="&#xd7;" d="M175 177q0 26 20 45l227 226l-227 226q-20 20 -20 45q0 26 20 46t46 20t45 -20l226 -227l226 227q20 20 45 20q26 0 46 -20t20 -46t-20 -45l-227 -226l227 -226q20 -19 20 -45t-20 -46t-46 -20t-45 20l-226 227l-226 -227q-20 -20 -45 -20q-26 0 -46 20t-20 46z" />
<glyph unicode="&#xd8;" d="M63 63q0 21 102 172q-101 178 -101 405q0 230 108 417q128 223 340 223q151 0 267 -124l64 96q20 29 51 29q26 0 46.5 -19t20.5 -45q0 -21 -102 -172q101 -178 101 -405q0 -230 -108 -417q-128 -223 -340 -223q-151 0 -267 124l-64 -96q-20 -29 -51 -29q-26 0 -46.5 19 t-20.5 45zM192 640q0 -157 54 -283l459 688q-88 107 -193 107q-101 0 -184 -96q-68 -79 -104 -192q-32 -104 -32 -224zM319 235q88 -107 193 -107q101 0 184 97q68 79 104 191q32 104 32 224q0 157 -54 283z" />
<glyph unicode="&#xd9;" d="M107 405v811q0 64 64 64t64 -64v-811q0 -114 81.5 -195.5t195.5 -81.5t195.5 81.5t81.5 195.5v811q0 64 64 64t64 -64v-811q0 -168 -118.5 -286.5t-286.5 -118.5t-286.5 118.5t-118.5 286.5zM319 1598q0 26 18.5 46.5t44.5 20.5q15 0 31 -8l256 -128q36 -17 36 -55 q0 -26 -18.5 -46.5t-44.5 -20.5q-15 0 -31 8l-256 128q-36 18 -36 55z" />
<glyph unicode="&#xda;" d="M107 405v811q0 64 64 64t64 -64v-811q0 -114 81.5 -195.5t195.5 -81.5t195.5 81.5t81.5 195.5v811q0 64 64 64t64 -64v-811q0 -168 -118.5 -286.5t-286.5 -118.5t-286.5 118.5t-118.5 286.5zM319 1474q0 38 36 55l256 128q15 8 31 8q26 0 44.5 -20.5t18.5 -46.5 q0 -38 -36 -55l-256 -128q-15 -8 -31 -8q-26 0 -44.5 20.5t-18.5 46.5z" />
<glyph unicode="&#xdb;" d="M107 405v811q0 64 64 64t64 -64v-811q0 -114 81.5 -195.5t195.5 -81.5t195.5 81.5t81.5 195.5v811q0 64 64 64t64 -64v-811q0 -168 -118.5 -286.5t-286.5 -118.5t-286.5 118.5t-118.5 286.5zM255 1474q0 32 29 51l187 124q23 15 41 16q18 0 41 -16l187 -124 q29 -19 29 -51q0 -26 -19.5 -46.5t-44.5 -20.5q-19 0 -37 12l-156 104l-156 -104q-18 -12 -37 -12q-26 0 -45 20.5t-19 46.5z" />
<glyph unicode="&#xdc;" d="M107 405v811q0 64 64 64t64 -64v-811q0 -114 81.5 -195.5t195.5 -81.5t195.5 81.5t81.5 195.5v811q0 64 64 64t64 -64v-811q0 -168 -118.5 -286.5t-286.5 -118.5t-286.5 118.5t-118.5 286.5zM224 1504q0 40 28 68t68 28t68 -28t28 -68t-28 -68t-68 -28t-68 28t-28 68z M608 1504q0 40 28 68t68 28t68 -28t28 -68t-28 -68t-68 -28t-68 28t-28 68z" />
<glyph unicode="&#xdd;" d="M63 1217q0 26 20.5 45t46.5 19q32 0 51 -29l331 -497l331 497q20 29 51 29q26 0 46.5 -19t20.5 -45q0 -19 -12 -37l-373 -560v-556q0 -64 -64 -64t-64 64v556l-373 560q-12 18 -12 37zM319 1474q0 38 36 55l256 128q15 8 31 8q26 0 44.5 -20.5t18.5 -46.5q0 -38 -36 -55 l-256 -128q-15 -8 -31 -8q-26 0 -44.5 20.5t-18.5 46.5z" />
<glyph unicode="&#xde;" d="M149 64v1152q0 64 64 64t64 -64v-128h235q185 0 316.5 -131.5t131.5 -316.5t-131.5 -316.5t-316.5 -131.5h-235v-128q0 -64 -64 -64t-64 64zM277 320h235q132 0 226 94t94 226t-94 226t-226 94h-235v-640z" />
<glyph unicode="&#xdf;" d="M147 64v906q0 128 91 219t219 91q117 0 200.5 -83t83.5 -201q0 -144 -120 -243q-45 -37 -45 -81q0 -40 28 -68t68 -28q119 0 203.5 -84.5t84.5 -203.5t-84.5 -203.5t-203.5 -84.5q-90 0 -164 51t-105 134q-5 14 -5 26q0 26 20.5 44t46.5 18q30 0 55 -37q40 -61 49 -70 q39 -38 103 -38q66 0 113 47t47 113t-47 113t-113 47q-93 0 -158.5 65.5t-65.5 158.5t82.5 169.5t82.5 154.5q0 65 -46 110.5t-110 45.5q-75 0 -128.5 -53.5t-53.5 -128.5v-906q0 -64 -64 -64t-64 64z" />
<glyph unicode="&#xe0;" d="M64 320q0 148 144 241q125 79 283 79q172 0 298 -90v26q0 38 -26 76q-79 116 -272 116q-111 0 -220 -63q-22 -13 -38 -13q-26 0 -45 20t-19 47q0 63 134 105q104 32 188 32q157 0 282 -79q144 -92 144 -241v-512q0 -64 -64 -64q-66 0 -64 90q-126 -90 -298 -90 q-158 0 -283 79q-144 92 -144 241zM192 320q0 -35 23 -71q78 -121 276 -121q67 0 125 18q67 20 115 62q58 51 58 112t-58 112q-49 43 -115 62q-58 18 -125 18q-198 0 -276 -121q-23 -36 -23 -71zM298 1214q0 26 18.5 46.5t44.5 20.5q15 0 31 -8l256 -128q36 -17 36 -55 q0 -26 -18.5 -46.5t-45.5 -20.5q-15 0 -30 8l-256 128q-36 18 -36 55z" />
<glyph unicode="&#xe1;" d="M64 320q0 148 144 241q125 79 283 79q172 0 298 -90v26q0 38 -26 76q-79 116 -272 116q-111 0 -220 -63q-22 -13 -38 -13q-26 0 -45 20t-19 47q0 63 134 105q104 32 188 32q157 0 282 -79q144 -92 144 -241v-512q0 -64 -64 -64q-66 0 -64 90q-126 -90 -298 -90 q-158 0 -283 79q-144 92 -144 241zM192 320q0 -35 23 -71q78 -121 276 -121q67 0 125 18q67 20 115 62q58 51 58 112t-58 112q-49 43 -115 62q-58 18 -125 18q-198 0 -276 -121q-23 -36 -23 -71zM298 1090q0 38 36 55l256 128q15 8 30 8q26 0 45 -20.5t19 -46.5 q0 -38 -36 -55l-256 -128q-15 -8 -31 -8q-26 0 -44.5 20.5t-18.5 46.5z" />
<glyph unicode="&#xe2;" d="M64 320q0 148 144 241q125 79 283 79q172 0 298 -90v26q0 38 -26 76q-79 116 -272 116q-111 0 -220 -63q-22 -13 -38 -13q-26 0 -45 20t-19 47q0 63 134 105q104 32 188 32q157 0 282 -79q144 -92 144 -241v-512q0 -64 -64 -64q-66 0 -64 90q-126 -90 -298 -90 q-158 0 -283 79q-144 92 -144 241zM192 320q0 -35 23 -71q78 -121 276 -121q67 0 125 18q67 20 115 62q58 51 58 112t-58 112q-49 43 -115 62q-58 18 -125 18q-198 0 -276 -121q-23 -36 -23 -71zM234 1090q0 32 29 51l187 124q23 15 41 16q18 0 41 -16l187 -124 q29 -19 29 -51q0 -26 -19.5 -46.5t-44.5 -20.5q-19 0 -37 12l-156 104l-156 -104q-18 -12 -37 -12q-26 0 -45 20.5t-19 46.5z" />
<glyph unicode="&#xe3;" d="M64 320q0 148 144 241q125 79 283 79q172 0 298 -90v26q0 38 -26 76q-79 116 -272 116q-111 0 -220 -63q-22 -13 -38 -13q-26 0 -45 20t-19 47q0 63 134 105q104 32 188 32q157 0 282 -79q144 -92 144 -241v-512q0 -64 -64 -64q-66 0 -64 90q-126 -90 -298 -90 q-158 0 -283 79q-144 92 -144 241zM170 1149q0 20 15 47q49 84 178 84q73 0 150.5 -64t105.5 -64q52 0 73.5 32t52.5 32q67 0 67 -61q0 -20 -16 -47q-49 -84 -177 -84q-73 0 -151 64t-105 64q-44 0 -68 -20q-15 -44 -59 -44q-67 0 -66 61zM192 320q0 -35 23 -71 q78 -121 276 -121q67 0 125 18q67 20 115 62q58 51 58 112t-58 112q-49 43 -115 62q-58 18 -125 18q-198 0 -276 -121q-23 -36 -23 -71z" />
<glyph unicode="&#xe4;" d="M64 320q0 148 144 241q125 79 283 79q172 0 298 -90v26q0 38 -26 76q-79 116 -272 116q-111 0 -220 -63q-22 -13 -38 -13q-26 0 -45 20t-19 47q0 63 134 105q104 32 188 32q157 0 282 -79q144 -92 144 -241v-512q0 -64 -64 -64q-66 0 -64 90q-126 -90 -298 -90 q-158 0 -283 79q-144 92 -144 241zM192 320q0 -35 23 -71q78 -121 276 -121q67 0 125 18q67 20 115 62q58 51 58 112t-58 112q-49 43 -115 62q-58 18 -125 18q-198 0 -276 -121q-23 -36 -23 -71zM203 1120q0 40 28 68t68 28q39 0 67.5 -28t28.5 -68t-28.5 -68t-67.5 -28 q-40 0 -68 28t-28 68zM587 1120q0 40 28 68t68 28q39 0 67.5 -28t28.5 -68t-28.5 -68t-67.5 -28q-40 0 -68 28t-28 68z" />
<glyph unicode="&#xe5;" d="M64 320q0 148 144 241q125 79 283 79q172 0 298 -90v26q0 38 -26 76q-79 116 -272 116q-111 0 -220 -63q-22 -13 -38 -13q-26 0 -45 20t-19 47q0 63 134 105q104 32 188 32q157 0 282 -79q144 -92 144 -241v-512q0 -64 -64 -64q-66 0 -64 90q-126 -90 -298 -90 q-158 0 -283 79q-144 92 -144 241zM192 320q0 -35 23 -71q78 -121 276 -121q67 0 125 18q67 20 115 62q58 51 58 112t-58 112q-49 43 -115 62q-58 18 -125 18q-198 0 -276 -121q-23 -36 -23 -71zM305 1119q0 76 54.5 130.5t131.5 54.5t131.5 -54.5t54.5 -130.5 q0 -77 -55 -130t-131 -53q-77 0 -131.5 53t-54.5 130zM433 1119q0 -55 58 -55t58 55q0 57 -58 57q-57 0 -58 -57z" />
<glyph unicode="&#xe6;" d="M64 320q0 121 66 215q74 105 190 105q70 0 127 -41q-4 60 -36 109q-38 60 -91 60q-38 0 -73.5 -38t-60.5 -38q-26 0 -46.5 19t-20.5 45q0 18 14 39q67 101 187 101q131 0 206 -129q75 129 192 129q77 0 160 -86t83 -163q0 -28 -18 -51q-49 -53 -144 -159 q-58 -69 -183 -199q41 -110 102 -110q56 0 117 147q19 45 59 45q67 0 67 -61q0 -10 -4 -22q-28 -95 -84 -159q-68 -78 -155 -78q-119 0 -192 129q-75 -129 -206 -129q-116 0 -190 105q-66 94 -66 215zM192 320q0 -66 31 -123q38 -69 97 -69q60 0 97 69q31 57 31 123t-31 123 q-38 69 -97 69q-60 0 -97 -69q-31 -57 -31 -123zM576 448q0 -24 3 -55l244 262q-45 113 -105 113q-24 0 -52 -28q-90 -90 -90 -292z" />
<glyph unicode="&#xe7;" d="M64 448q0 196 162 326q151 122 352 122q94 0 192 -32q110 -36 168 -96q23 -24 23 -47q0 -26 -19.5 -46t-45.5 -20q-18 0 -42 16q-138 97 -276 97q-147 0 -261 -85q-125 -93 -125 -235t125 -235q114 -85 261 -85q138 0 276 96q23 16 41 17q26 0 46 -20t20 -46 q0 -73 -185 -141q58 -71 58 -162q0 -106 -75 -181t-181 -75q-151 0 -222 129q-9 17 -10 33q0 26 20.5 44.5t47.5 18.5q26 0 66.5 -48.5t97.5 -48.5q53 0 90.5 37.5t37.5 90.5t-37.5 90.5t-90.5 37.5q-201 0 -352 122q-162 130 -162 326z" />
<glyph unicode="&#xe8;" d="M64 448q0 190 144 321q139 127 331 127q70 0 146 -25q85 -28 170 -89q105 -77 105 -146q0 -34 -33 -52l-647 -348q105 -108 259 -108q165 0 267 114q12 15 36 47t52 32q26 0 46.5 -19t20.5 -45q0 -16 -10 -35q-59 -102 -177 -163q-112 -59 -235 -59q-192 0 -331 127 q-144 131 -144 321zM192 448q0 -55 19 -104l589 316q-104 108 -261 108q-138 0 -240 -90q-107 -94 -107 -230zM347 1214q0 26 18.5 46.5t44.5 20.5q15 0 30 -8l256 -128q36 -17 36 -55q0 -26 -18.5 -46.5t-43.5 -20.5q-15 0 -31 8l-256 128q-36 18 -36 55z" />
<glyph unicode="&#xe9;" d="M64 448q0 190 144 321q139 127 331 127q70 0 146 -25q85 -28 170 -89q105 -77 105 -146q0 -34 -33 -52l-647 -348q105 -108 259 -108q165 0 267 114q12 15 36 47t52 32q26 0 46.5 -19t20.5 -45q0 -16 -10 -35q-59 -102 -177 -163q-112 -59 -235 -59q-192 0 -331 127 q-144 131 -144 321zM192 448q0 -55 19 -104l589 316q-104 108 -261 108q-138 0 -240 -90q-107 -94 -107 -230zM347 1090q0 38 36 55l256 128q15 8 31 8q26 0 44 -20.5t18 -46.5q0 -38 -36 -55l-256 -128q-15 -8 -30 -8q-26 0 -44.5 20.5t-18.5 46.5z" />
<glyph unicode="&#xea;" d="M64 448q0 190 144 321q139 127 331 127q70 0 146 -25q85 -28 170 -89q105 -77 105 -146q0 -34 -33 -52l-647 -348q105 -108 259 -108q165 0 267 114q12 15 36 47t52 32q26 0 46.5 -19t20.5 -45q0 -16 -10 -35q-59 -102 -177 -163q-112 -59 -235 -59q-192 0 -331 127 q-144 131 -144 321zM192 448q0 -55 19 -104l589 316q-104 108 -261 108q-138 0 -240 -90q-107 -94 -107 -230zM282 1090q0 32 30 51l187 124q23 15 40 16q18 0 41 -16l187 -124q29 -19 29 -51q0 -26 -18.5 -46.5t-44.5 -20.5q-19 0 -37 12l-157 104l-156 -104 q-18 -12 -37 -12q-26 0 -45 20.5t-19 46.5z" />
<glyph unicode="&#xeb;" d="M64 448q0 190 144 321q139 127 331 127q70 0 146 -25q85 -28 170 -89q105 -77 105 -146q0 -34 -33 -52l-647 -348q105 -108 259 -108q165 0 267 114q12 15 36 47t52 32q26 0 46.5 -19t20.5 -45q0 -16 -10 -35q-59 -102 -177 -163q-112 -59 -235 -59q-192 0 -331 127 q-144 131 -144 321zM192 448q0 -55 19 -104l589 316q-104 108 -261 108q-138 0 -240 -90q-107 -94 -107 -230zM252 1120q0 40 27.5 68t67.5 28t68.5 -28t28.5 -68t-28.5 -68t-68.5 -28t-67.5 28t-27.5 68zM636 1120q0 40 27.5 68t67.5 28t68.5 -28t28.5 -68t-28.5 -68 t-68.5 -28t-67.5 28t-27.5 68z" />
<glyph unicode="&#xec;" d="M192 832q0 64 64 64h257q63 0 63 -64v-704h192q64 0 64 -64t-64 -64h-256q-64 0 -64 64v704h-192q-64 0 -64 64zM319 1214q0 26 18.5 46.5t44.5 20.5q15 0 31 -8l256 -128q36 -17 36 -55q0 -26 -18.5 -46.5t-44.5 -20.5q-15 0 -31 8l-256 128q-36 18 -36 55z" />
<glyph unicode="&#xed;" d="M192 832q0 64 64 64h257q63 0 63 -64v-704h192q64 0 64 -64t-64 -64h-256q-64 0 -64 64v704h-192q-64 0 -64 64zM319 1090q0 38 36 55l256 128q15 8 31 8q26 0 44.5 -20.5t18.5 -46.5q0 -38 -36 -55l-256 -128q-15 -8 -31 -8q-26 0 -44.5 20.5t-18.5 46.5z" />
<glyph unicode="&#xee;" d="M192 832q0 64 64 64h257q63 0 63 -64v-704h192q64 0 64 -64t-64 -64h-256q-64 0 -64 64v704h-192q-64 0 -64 64zM255 1090q0 32 29 51l187 124q23 15 41 16q18 0 41 -16l187 -124q29 -19 29 -51q0 -26 -19.5 -46.5t-44.5 -20.5q-19 0 -37 12l-156 104l-156 -104 q-18 -12 -37 -12q-26 0 -45 20.5t-19 46.5z" />
<glyph unicode="&#xef;" d="M192 832q0 64 64 64h256q64 0 64 -72v-696h192q64 0 64 -64t-64 -64h-256q-65 0 -65 64l1 704h-192q-64 0 -64 64zM224 1120q0 40 28 68t67 28q41 0 69 -28t28 -68t-28.5 -68t-68.5 -28q-39 0 -67 28t-28 68zM608 1120q0 40 28 68t67 28q40 0 68.5 -28t28.5 -68 t-28.5 -68t-68.5 -28q-39 0 -67 28t-28 68z" />
<glyph unicode="&#xf0;" d="M64 448q0 186 134 319.5t320 128.5l-129 128h-197q-64 0 -64 64q0 49 47 61q16 4 86 3q-38 34 -38 63q0 26 19.5 46t45.5 20q25 0 45 -20l109 -109h390q64 0 64 -64t-64 -64h-261l264 -264q125 -125 125 -312q0 -185 -131.5 -316.5t-316.5 -131.5t-316.5 131.5 t-131.5 316.5zM192 448q0 -132 94 -226t226 -94t226 94t94 226t-94 226t-226 94t-226 -94t-94 -226z" />
<glyph unicode="&#xf1;" d="M149 64v768q0 64 64 64q65 0 64 -98q109 98 256 98q159 0 271.5 -112.5t112.5 -271.5v-448q0 -64 -64 -64t-64 64v448q0 106 -75 181t-181 75t-181 -75t-75 -181v-448q0 -64 -64 -64t-64 64zM212 1149q0 20 16 47q49 84 177 84q73 0 151 -64t105 -64q52 0 74 32t53 32 q66 0 66 -61q0 -20 -15 -47q-49 -84 -178 -84q-73 0 -150.5 64t-105.5 64q-44 0 -67 -20q-15 -44 -59 -44q-67 0 -67 61z" />
<glyph unicode="&#xf2;" d="M64 448q0 185 131.5 316.5t316.5 131.5t316.5 -131.5t131.5 -316.5t-131.5 -316.5t-316.5 -131.5t-316.5 131.5t-131.5 316.5zM192 448q0 -132 94 -226t226 -94t226 94t94 226t-94 226t-226 94t-226 -94t-94 -226zM319 1214q0 26 18.5 46.5t44.5 20.5q15 0 31 -8 l256 -128q36 -17 36 -55q0 -26 -18.5 -46.5t-44.5 -20.5q-15 0 -31 8l-256 128q-36 18 -36 55z" />
<glyph unicode="&#xf3;" d="M64 448q0 185 131.5 316.5t316.5 131.5t316.5 -131.5t131.5 -316.5t-131.5 -316.5t-316.5 -131.5t-316.5 131.5t-131.5 316.5zM192 448q0 -132 94 -226t226 -94t226 94t94 226t-94 226t-226 94t-226 -94t-94 -226zM319 1090q0 38 36 55l256 128q15 8 31 8 q26 0 44.5 -20.5t18.5 -46.5q0 -38 -36 -55l-256 -128q-15 -8 -31 -8q-26 0 -44.5 20.5t-18.5 46.5z" />
<glyph unicode="&#xf4;" d="M64 448q0 185 131.5 316.5t316.5 131.5t316.5 -131.5t131.5 -316.5t-131.5 -316.5t-316.5 -131.5t-316.5 131.5t-131.5 316.5zM192 448q0 -132 94 -226t226 -94t226 94t94 226t-94 226t-226 94t-226 -94t-94 -226zM255 1090q0 32 29 51l187 124q23 15 41 16q18 0 41 -16 l187 -124q29 -19 29 -51q0 -26 -19.5 -46.5t-44.5 -20.5q-19 0 -37 12l-156 104l-156 -104q-18 -12 -37 -12q-26 0 -45 20.5t-19 46.5z" />
<glyph unicode="&#xf5;" d="M64 448q0 185 131.5 316.5t316.5 131.5t316.5 -131.5t131.5 -316.5t-131.5 -316.5t-316.5 -131.5t-316.5 131.5t-131.5 316.5zM191 1149q0 20 16 47q49 84 177 84q73 0 151 -64t105 -64q52 0 74 32t52 32q67 0 67 -61q0 -20 -16 -47q-49 -84 -177 -84q-73 0 -151 64 t-105 64q-44 0 -67 -20q-15 -44 -59 -44q-67 0 -67 61zM192 448q0 -132 94 -226t226 -94t226 94t94 226t-94 226t-226 94t-226 -94t-94 -226z" />
<glyph unicode="&#xf6;" d="M64 448q0 185 131.5 316.5t316.5 131.5t316.5 -131.5t131.5 -316.5t-131.5 -316.5t-316.5 -131.5t-316.5 131.5t-131.5 316.5zM192 448q0 -132 94 -226t226 -94t226 94t94 226t-94 226t-226 94t-226 -94t-94 -226zM224 1120q0 40 28 68t68 28t68 -28t28 -68t-28 -68 t-68 -28t-68 28t-28 68zM608 1120q0 40 28 68t68 28t68 -28t28 -68t-28 -68t-68 -28t-68 28t-28 68z" />
<glyph unicode="&#xf7;" d="M192 544q0 64 64 64h512q64 0 64 -64t-64 -64h-512q-64 0 -64 64zM415 194q0 39 28.5 66.5t68.5 27.5t68.5 -27.5t28.5 -66.5q0 -40 -28.5 -69t-68.5 -29t-68.5 29t-28.5 69zM415 898q0 39 28.5 66.5t68.5 27.5t68.5 -27.5t28.5 -66.5q0 -40 -28.5 -69t-68.5 -29 t-68.5 29t-28.5 69z" />
<glyph unicode="&#xf8;" d="M63 65q0 27 91 115q-90 119 -90 268q0 185 131.5 316.5t316.5 131.5q149 0 268 -90q88 90 115 91q26 0 46 -20t20 -46q0 -27 -91 -115q90 -119 90 -268q0 -185 -131.5 -316.5t-316.5 -131.5q-149 0 -268 90q-88 -90 -115 -91q-26 0 -46 19.5t-20 46.5zM192 448 q0 -96 53 -177l444 444q-80 53 -177 53q-132 0 -226 -94t-94 -226zM335 181q80 -53 177 -53q132 0 226 94t94 226q0 96 -53 177z" />
<glyph unicode="&#xf9;" d="M107 405v427q0 64 64 64t64 -64v-427q0 -114 81.5 -195.5t195.5 -81.5t195.5 81.5t81.5 195.5v427q0 64 64 64t64 -64v-427q0 -168 -118.5 -286.5t-286.5 -118.5t-286.5 118.5t-118.5 286.5zM319 1214q0 26 18.5 46.5t44.5 20.5q15 0 31 -8l256 -128q36 -17 36 -55 q0 -26 -18.5 -46.5t-44.5 -20.5q-15 0 -31 8l-256 128q-36 18 -36 55z" />
<glyph unicode="&#xfa;" d="M107 405v427q0 64 64 64t64 -64v-427q0 -114 81.5 -195.5t195.5 -81.5t195.5 81.5t81.5 195.5v427q0 64 64 64t64 -64v-427q0 -168 -118.5 -286.5t-286.5 -118.5t-286.5 118.5t-118.5 286.5zM319 1090q0 38 36 55l256 128q15 8 31 8q26 0 44.5 -20.5t18.5 -46.5 q0 -38 -36 -55l-256 -128q-15 -8 -31 -8q-26 0 -44.5 20.5t-18.5 46.5z" />
<glyph unicode="&#xfb;" d="M107 405v427q0 64 64 64t64 -64v-427q0 -114 81.5 -195.5t195.5 -81.5t195.5 81.5t81.5 195.5v427q0 64 64 64t64 -64v-427q0 -168 -118.5 -286.5t-286.5 -118.5t-286.5 118.5t-118.5 286.5zM255 1090q0 32 29 51l187 124q23 15 41 16q18 0 41 -16l187 -124 q29 -19 29 -51q0 -26 -19.5 -46.5t-44.5 -20.5q-19 0 -37 12l-156 104l-156 -104q-18 -12 -37 -12q-26 0 -45 20.5t-19 46.5z" />
<glyph unicode="&#xfc;" d="M107 405v427q0 64 64 64t64 -64v-427q0 -114 81.5 -195.5t195.5 -81.5t195.5 81.5t81.5 195.5v427q0 64 64 64t64 -64v-427q0 -168 -118.5 -286.5t-286.5 -118.5t-286.5 118.5t-118.5 286.5zM224 1120q0 40 28 68t68 28t68 -28t28 -68t-28 -68t-68 -28t-68 28t-28 68z M608 1120q0 40 28 68t68 28t68 -28t28 -68t-28 -68t-68 -28t-68 28t-28 68z" />
<glyph unicode="&#xfd;" d="M107 384v448q0 64 64 64t64 -64v-448q0 -106 75 -181t181 -75t181 75t75 180v449q0 64 64 64t64 -64v-832q0 -159 -113 -271.5t-271 -112.5q-101 0 -191 51q-94 53 -141 139q-9 19 -10 34q0 26 20.5 45t46.5 19q29 0 54 -33q96 -127 221 -127q106 0 181 75t75 181v98 q-109 -98 -256 -98q-159 0 -271.5 112.5t-112.5 271.5zM298 1090q0 38 36 55l256 128q15 8 30 8q26 0 45 -20.5t19 -46.5q0 -38 -36 -55l-256 -128q-15 -8 -31 -8q-26 0 -44.5 20.5t-18.5 46.5z" />
<glyph unicode="&#xfe;" d="M149 -320v1536q0 64 64 64t64 -64v-441q116 121 278 121q175 0 292 -138q113 -133 113 -310t-113 -310q-118 -138 -292 -138q-161 0 -278 121v-441q0 -64 -64 -64t-64 64zM277 448q0 -125 75 -218q81 -102 203 -102q121 0 202 102q75 93 75 218t-75 218q-81 102 -202 102 t-203 -102q-75 -94 -75 -218z" />
<glyph unicode="&#xff;" d="M107 384v448q0 64 64 64t64 -64v-448q0 -106 75 -181t181 -75t181 75t75 180v449q0 64 64 64t64 -64v-832q0 -159 -113 -271.5t-271 -112.5q-101 0 -191 51q-94 53 -141 139q-9 19 -10 34q0 26 20.5 45t46.5 19q29 0 54 -33q96 -127 221 -127q106 0 181 75t75 181v98 q-109 -98 -256 -98q-159 0 -271.5 112.5t-112.5 271.5zM203 1109q0 40 28 68t68 28t68 -28t28 -68t-28 -68t-68 -28t-68 28t-28 68zM587 1109q0 40 28 68t68 28t68 -28t28 -68t-28 -68t-68 -28t-68 28t-28 68z" />
<glyph unicode="&#x152;" d="M64 640q0 230 108 417q128 223 340 223h384q64 0 64 -64t-64 -64h-113q177 -193 177 -512q0 -318 -177 -512h113q64 0 64 -64t-64 -64h-384q-212 0 -340 223q-108 188 -108 417zM192 640q0 -157 58 -292q70 -164 198 -209v1002q-128 -45 -198 -209q-58 -135 -58 -292z M576 139q128 44 198 208q58 136 58 293q0 155 -59 292q-70 165 -197 209v-437h192q64 0 64 -64t-64 -64h-192v-437z" />
<glyph unicode="&#x153;" d="M64 448q0 154 56 282q73 166 207 166q125 0 199 -149q73 149 198 149q75 0 156 -86t81 -162q0 -26 -17 -51q-44 -49 -129 -146q-60 -73 -188 -211q38 -112 97 -112q38 0 70 56q4 7 41 90q20 46 59 46q67 0 67 -61q0 -10 -4 -22q-70 -237 -233 -237q-126 0 -198 149 q-74 -149 -199 -149q-133 0 -207 166q-56 129 -56 282zM192 448q0 -212 92 -298q24 -22 43 -22q22 0 50 30q85 91 85 290t-85 290q-28 30 -50 30q-19 0 -43 -22q-92 -85 -92 -298zM590 448q0 -21 2 -50l231 257q-44 113 -99 113q-19 0 -42 -22q-92 -85 -92 -298z" />
<glyph unicode="&#x178;" d="M63 1217q0 26 20.5 45t46.5 19q32 0 51 -29l331 -497l331 497q20 29 51 29q26 0 46.5 -19t20.5 -45q0 -19 -12 -37l-373 -560v-556q0 -64 -64 -64t-64 64v556l-373 560q-12 18 -12 37zM224 1504q0 40 28 68t68 28q39 0 67.5 -28t28.5 -68t-28.5 -68t-67.5 -28 q-40 0 -68 28t-28 68zM608 1504q0 40 28 68t68 28q39 0 67.5 -28t28.5 -68t-28.5 -68t-67.5 -28q-40 0 -68 28t-28 68z" />
<glyph unicode="&#x2c6;" d="M255 1474q0 30 29 51q183 137 228 136q44 0 228 -136q29 -21 29 -51q0 -26 -19.5 -46.5t-44.5 -20.5q-19 0 -37 12l-156 104l-156 -104q-18 -12 -37 -12q-26 0 -45 20.5t-19 46.5z" />
<glyph unicode="&#x2dc;" d="M191 1533q0 20 16 47q49 84 177 84q73 0 151 -64t105 -64q52 0 74 32t52 32q67 0 67 -61q0 -20 -16 -47q-49 -84 -177 -84q-73 0 -151 64t-105 64q-44 0 -67 -20q-15 -44 -59 -44q-67 0 -67 61z" />
<glyph unicode="&#x2000;" horiz-adv-x="832" />
<glyph unicode="&#x2001;" horiz-adv-x="1665" />
<glyph unicode="&#x2002;" horiz-adv-x="832" />
<glyph unicode="&#x2003;" horiz-adv-x="1665" />
<glyph unicode="&#x2004;" horiz-adv-x="555" />
<glyph unicode="&#x2005;" horiz-adv-x="416" />
<glyph unicode="&#x2006;" horiz-adv-x="277" />
<glyph unicode="&#x2007;" horiz-adv-x="277" />
<glyph unicode="&#x2008;" horiz-adv-x="208" />
<glyph unicode="&#x2009;" horiz-adv-x="333" />
<glyph unicode="&#x200a;" horiz-adv-x="92" />
<glyph unicode="&#x2010;" d="M256 448q0 64 64 64h384q64 0 64 -64t-64 -64h-384q-64 0 -64 64z" />
<glyph unicode="&#x2011;" d="M256 448q0 64 64 64h384q64 0 64 -64t-64 -64h-384q-64 0 -64 64z" />
<glyph unicode="&#x2012;" d="M256 448q0 64 64 64h384q64 0 64 -64t-64 -64h-384q-64 0 -64 64z" />
<glyph unicode="&#x2013;" d="M192 448q0 64 64 64h512q64 0 64 -64t-64 -64h-512q-64 0 -64 64z" />
<glyph unicode="&#x2014;" d="M64 448q0 64 64 64h768q64 0 64 -64t-64 -64h-768q-64 0 -64 64z" />
<glyph unicode="&#x2018;" d="M392 960q0 197 131 317q22 20 45 20q26 0 46 -20t20 -46q0 -21 -20 -44q-94 -108 -94 -227q0 -64 -64 -64t-64 64z" />
<glyph unicode="&#x2019;" d="M390 945q0 21 20 44q94 108 94 227q0 64 64 64t64 -64q0 -197 -131 -317q-22 -20 -45 -20q-26 0 -46 19.5t-20 46.5z" />
<glyph unicode="&#x201a;" d="M390 -207q0 21 20 44q94 108 94 227q0 64 64 64t64 -64q0 -197 -131 -317q-22 -20 -45 -20q-26 0 -46 19.5t-20 46.5z" />
<glyph unicode="&#x201c;" d="M200 960q0 197 131 317q22 20 45 20q26 0 46 -20t20 -46q0 -21 -20 -44q-94 -108 -94 -227q0 -64 -64 -64t-64 64zM584 960q0 197 131 317q22 20 45 20q26 0 46 -20t20 -46q0 -21 -20 -44q-94 -108 -94 -227q0 -64 -64 -64t-64 64z" />
<glyph unicode="&#x201d;" d="M198 945q0 21 20 44q94 108 94 227q0 64 64 64t64 -64q0 -197 -131 -317q-22 -20 -45 -20q-26 0 -46 19.5t-20 46.5zM582 945q0 21 20 44q94 108 94 227q0 64 64 64t64 -64q0 -197 -131 -317q-22 -20 -45 -20q-26 0 -46 19.5t-20 46.5z" />
<glyph unicode="&#x201e;" d="M198 -207q0 21 20 44q94 108 94 227q0 64 64 64t64 -64q0 -197 -131 -317q-22 -20 -45 -20q-26 0 -46 19.5t-20 46.5zM582 -207q0 21 20 44q94 108 94 227q0 64 64 64t64 -64q0 -197 -131 -317q-22 -20 -45 -20q-26 0 -46 19.5t-20 46.5z" />
<glyph unicode="&#x2022;" d="M53 590q0 57 23 111q29 67 78 67t80 -67q23 -54 23 -111q0 -60 -22 -112q-28 -67 -81 -67q-51 0 -80 67q-21 52 -21 112zM153 235q0 124 121 204q108 71 238 71q131 0 238 -71q121 -80 121 -204q0 -74 -24 -133q-33 -79 -98 -79q-18 0 -50.5 14t-50.5 14q-26 0 -68 -25.5 t-68 -25.5t-67.5 25.5t-68.5 25.5q-19 0 -51 -14t-50 -14q-64 0 -98 79q-25 59 -24 133zM282 718q0 57 23 111q30 67 79 67t79 -67q23 -54 23 -111q0 -61 -22 -112q-28 -67 -80 -68q-51 0 -79 68q-22 51 -23 112zM538 718q0 57 23 111q30 67 79 67t79 -67q23 -54 23 -111 q0 -61 -23 -112q-28 -67 -79 -68q-52 0 -80 68q-22 51 -22 112zM767 590q0 57 23 111q30 67 80 67q49 0 78 -67q23 -54 23 -111q0 -60 -21 -112q-29 -67 -80 -67q-52 0 -81 67q-22 52 -22 112z" />
<glyph unicode="&#x2026;" d="M73 97q0 40 29 67.5t69 27.5t68.5 -27.5t28.5 -67.5t-28.5 -68.5t-68.5 -28.5t-69 28.5t-29 68.5zM415 97q0 40 28.5 67.5t68.5 27.5t68.5 -27.5t28.5 -67.5t-28.5 -68.5t-68.5 -28.5t-68.5 28.5t-28.5 68.5zM756 97q0 40 28.5 67.5t68.5 27.5t69 -27.5t29 -67.5 t-29 -68.5t-69 -28.5t-68.5 28.5t-28.5 68.5z" />
<glyph unicode="&#x202f;" horiz-adv-x="333" />
<glyph unicode="&#x2039;" d="M356 448q0 22 2 29l192 384q19 36 56 36q26 0 46.5 -18.5t20.5 -44.5q0 -15 -7 -31l-179 -355l179 -355q7 -16 7 -31q0 -26 -20.5 -44.5t-46.5 -18.5q-37 0 -56 36l-192 384q-3 7 -2 29z" />
<glyph unicode="&#x203a;" d="M351 62q0 15 7 31l179 355l-179 355q-8 15 -7 31q0 26 20.5 44.5t46.5 18.5q37 0 56 -36l192 -384q2 -7 2 -29t-2 -29l-192 -384q-19 -36 -56 -36q-26 0 -46.5 18.5t-20.5 44.5z" />
<glyph unicode="&#x205f;" horiz-adv-x="416" />
<glyph unicode="&#x20ac;" d="M64 512q0 43 33 56q19 8 70 8q-2 32 -1 64q0 32 1 64q-51 0 -70 8q-33 14 -33 56q0 48 42 60q17 4 80 4q40 180 144 303q122 145 290 145q96 0 189 -57q90 -55 140 -139q12 -20 12 -38q0 -26 -20.5 -44.5t-46.5 -18.5q-28 0 -51 28q-113 141 -223 141t-198 -108 q-73 -90 -105 -212h390q64 0 64 -64t-64 -64h-411q-3 -32 -2 -64q0 -32 2 -64h324q64 0 64 -64t-64 -64h-303q32 -122 105 -212q88 -108 198 -108t223 141q23 29 51 29q26 0 46.5 -19t20.5 -45q0 -17 -12 -38q-50 -84 -140 -139q-93 -57 -189 -57q-167 0 -290 145 q-104 123 -144 303h-33q-89 -2 -89 64z" />
<glyph unicode="&#x2122;" d="M63 1216q0 64 64 64h269q64 0 64 -64q0 -49 -47 -61q-13 -3 -87 -3v-512q0 -64 -64 -64t-64 64v512q-7 0 -23 -1h-22q-90 0 -90 65zM384 638q0 5 2 12l89 576q9 65 62 65q46 0 62 -56l73 -244l74 244q17 56 62 56q52 0 62 -65l90 -576q1 -7 1 -12q0 -62 -66 -62 q-54 0 -61 54l-47 297l-53 -178q-17 -56 -62 -56q-44 0 -61 56l-53 179l-46 -298q-9 -54 -62 -54q-66 0 -66 62z" />
<glyph unicode="&#xe000;" horiz-adv-x="896" d="M0 0v896h896v-896h-896z" />
<glyph unicode="&#xfb01;" d="M117 832q0 64 65 64h127l1 128q0 106 75 181t181 75q72 0 124 -26q67 -33 67 -99q0 -67 -51 -66q-18 0 -57.5 31.5t-82.5 31.5q-53 0 -90.5 -37.5t-37.5 -90.5l-1 -128h321q25 0 44.5 -19t19.5 -45v-768q0 -64 -64 -64t-64 64l-1 704h-256l1 -704q0 -64 -64 -64t-64 64 l-1 704h-127q-65 0 -65 64z" />
<glyph unicode="&#xfb02;" d="M64 832q0 64 64 64h128v128q0 106 75 181t181 75t181 -75t75 -181v-768q0 -53 37.5 -90.5t90.5 -37.5q64 0 64 -64t-64 -64q-106 0 -181 75t-75 181v768q0 53 -37.5 90.5t-90.5 37.5t-90.5 -37.5t-37.5 -90.5v-128h128q64 0 64 -64t-64 -64h-128v-704q0 -64 -64 -64 t-64 64v704h-128q-64 0 -64 64z" />
</font>
</defs>
</svg>
